<svg width="416" height="573" viewBox="0 0 416 573" fill="none" xmlns="http://www.w3.org/2000/svg">
<g filter="url(#filter0_i_30_89)">
<rect x="15" width="400" height="573" rx="24" fill="black"/>
</g>
<g filter="url(#filter1_f_30_89)">
<ellipse cx="208" cy="462" rx="145" ry="27" fill="#D9D9D9"/>
</g>
<g filter="url(#filter2_d_30_89)">
<path d="M164.878 532.728C166.974 532.728 168.222 531.296 168.622 528.432H170.422C169.926 532.432 168.078 534.424 164.878 534.408C162.878 534.392 161.334 533.608 160.246 532.056C159.158 530.504 158.614 528.304 158.614 525.456C158.614 522.592 159.15 520.384 160.222 518.832C161.294 517.28 162.822 516.504 164.806 516.504C168.07 516.504 169.966 518.504 170.494 522.504H168.694C168.342 519.624 167.022 518.184 164.734 518.184C163.39 518.184 162.35 518.816 161.614 520.08C160.894 521.328 160.534 523.12 160.534 525.456C160.534 527.776 160.91 529.568 161.662 530.832C162.414 532.096 163.486 532.728 164.878 532.728ZM185.268 534H173.196V532.32H178.116V518.232H174.372V516.552H179.916V532.32H185.268V534ZM187.659 527.88C187.659 526.552 187.883 525.408 188.331 524.448C188.795 523.488 189.443 522.752 190.275 522.24C191.123 521.712 192.115 521.448 193.251 521.448C194.339 521.448 195.283 521.712 196.083 522.24C196.883 522.768 197.499 523.528 197.931 524.52C198.363 525.496 198.579 526.656 198.579 528V528.192H189.435C189.515 529.552 189.915 530.632 190.635 531.432C191.355 532.232 192.283 532.632 193.419 532.632C194.443 532.632 195.251 532.376 195.843 531.864C196.451 531.352 196.803 530.632 196.899 529.704H198.579C198.419 531.176 197.891 532.312 196.995 533.112C196.115 533.912 194.923 534.312 193.419 534.312C192.251 534.312 191.235 534.056 190.371 533.544C189.507 533.016 188.835 532.272 188.355 531.312C187.891 530.336 187.659 529.192 187.659 527.88ZM193.251 523.128C192.227 523.096 191.387 523.384 190.731 523.992C190.091 524.6 189.731 525.44 189.651 526.512H196.707C196.643 525.504 196.299 524.696 195.675 524.088C195.051 523.48 194.243 523.16 193.251 523.128ZM207.257 525.816C208.009 525.816 208.697 525.928 209.321 526.152C209.961 526.36 210.401 526.632 210.641 526.968L210.761 527.136V523.68H203.681V522H212.561V534H210.761V532.872L210.641 532.992C210.257 533.376 209.769 533.696 209.177 533.952C208.585 534.208 207.985 534.336 207.377 534.336C206.401 534.336 205.537 534.152 204.785 533.784C204.049 533.416 203.465 532.904 203.033 532.248C202.617 531.592 202.409 530.84 202.409 529.992C202.409 529.176 202.609 528.456 203.009 527.832C203.425 527.192 204.001 526.696 204.737 526.344C205.473 525.992 206.313 525.816 207.257 525.816ZM204.209 529.992C204.209 530.776 204.505 531.416 205.097 531.912C205.689 532.408 206.449 532.656 207.377 532.656C208.369 532.656 209.177 532.408 209.801 531.912C210.441 531.416 210.761 530.776 210.761 529.992C210.761 529.256 210.433 528.656 209.777 528.192C209.137 527.728 208.297 527.496 207.257 527.496C206.361 527.496 205.625 527.728 205.049 528.192C204.489 528.656 204.209 529.256 204.209 529.992ZM217.256 534V522H227.408L227.432 534H225.632L225.608 523.68H219.056V534H217.256ZM254.365 532.32V522H256.165V534H250.669C249.165 534 248.013 533.68 247.213 533.04C246.413 532.384 246.013 531.328 246.013 529.872V522H247.813V529.632C247.813 530.272 247.901 530.792 248.077 531.192C248.253 531.576 248.565 531.864 249.013 532.056C249.477 532.232 250.141 532.32 251.005 532.32H254.365ZM263.836 519.456V516.552H266.74V519.456H263.836ZM266.74 532.32H272.092V534H259.54V532.32H264.94V523.128H260.716V521.448H266.74V532.32Z" fill="url(#paint0_linear_30_89)"/>
</g>
<mask id="mask0_30_89" style="mask-type:alpha" maskUnits="userSpaceOnUse" x="15" y="0" width="400" height="573">
<rect x="15" width="400" height="573" rx="24" fill="black"/>
</mask>
<g mask="url(#mask0_30_89)">
<g filter="url(#filter3_i_30_89)">
<rect x="15" width="400" height="489" rx="24" fill="white"/>
</g>
</g>
<mask id="mask1_30_89" style="mask-type:alpha" maskUnits="userSpaceOnUse" x="15" y="0" width="400" height="489">
<rect x="15" width="400" height="489" rx="24" fill="url(#paint1_linear_30_89)"/>
</mask>
<g mask="url(#mask1_30_89)">
<g filter="url(#filter4_f_30_89)">
<ellipse cx="207.5" cy="596.5" rx="218.5" ry="65.5" fill="#D9D9D9"/>
</g>
<g filter="url(#filter5_d_30_89)">
<path d="M35 47C35 33.7452 45.7452 23 59 23L302.5 23C315.755 23 326.5 33.7452 326.5 47V54.5C326.5 67.7548 337.245 78.5 350.5 78.5H371C384.255 78.5 395 89.2452 395 102.5V370C395 383.255 384.255 394 371 394H59C45.7452 394 35 383.255 35 370V47Z" fill="#D9D9D9"/>
</g>
<g filter="url(#filter6_d_30_89)">
<rect x="339" y="23" width="56.0645" height="41.0645" rx="11.7419" fill="#FFC9C9" shape-rendering="crispEdges"/>
<path d="M357.025 50.0322H349.15V48.9363H352.359V39.7463H349.917V38.6504H353.533V48.9363H357.025V50.0322ZM361.34 40.5447V38.6504H363.234V40.5447H361.34ZM363.234 48.9363H366.725V50.0322H358.537V48.9363H362.06V42.9401H359.304V41.8442H363.234V48.9363ZM372.434 50.0322H371.04L367.846 42.2043H369.146L371.745 48.5606L374.328 42.2043H375.627L372.434 50.0322ZM377.359 46.04C377.359 45.1737 377.505 44.4274 377.797 43.8012C378.1 43.1749 378.523 42.6948 379.066 42.3608C379.619 42.0164 380.266 41.8442 381.007 41.8442C381.717 41.8442 382.332 42.0164 382.854 42.3608C383.376 42.7053 383.778 43.201 384.06 43.8481C384.342 44.4848 384.482 45.2415 384.482 46.1182V46.2435H378.518C378.57 47.1307 378.831 47.8352 379.3 48.357C379.77 48.8789 380.375 49.1398 381.116 49.1398C381.784 49.1398 382.312 48.9728 382.698 48.6389C383.094 48.3049 383.324 47.8352 383.387 47.2298H384.482C384.378 48.19 384.034 48.9311 383.449 49.453C382.875 49.9748 382.098 50.2358 381.116 50.2358C380.355 50.2358 379.692 50.0688 379.128 49.7348C378.565 49.3903 378.126 48.905 377.813 48.2788C377.51 47.6421 377.359 46.8958 377.359 46.04ZM381.007 42.9401C380.339 42.9192 379.791 43.1071 379.363 43.5037C378.946 43.9003 378.711 44.4483 378.658 45.1476H383.261C383.22 44.49 382.995 43.963 382.588 43.5663C382.181 43.1697 381.654 42.961 381.007 42.9401Z" fill="#FF0000"/>
</g>
<g filter="url(#filter7_di_30_89)">
<circle cx="214.5" cy="158" r="50" fill="url(#paint2_linear_30_89)"/>
<path d="M213.5 219.5C133.5 219 107 270.459 107 310.5H323C323 270.459 293.5 220 213.5 219.5Z" fill="url(#paint3_linear_30_89)"/>
</g>
<g filter="url(#filter8_di_30_89)">
<rect x="35" y="414" width="60" height="60" rx="12.6" fill="url(#paint4_linear_30_89)"/>
</g>
<g filter="url(#filter9_di_30_89)">
<circle cx="65.358" cy="432.864" r="10.8642" fill="url(#paint5_linear_30_89)"/>
<path d="M65.1407 446.227C47.758 446.118 42 457.3 42 466H88.9333C88.9333 457.3 82.5235 446.336 65.1407 446.227Z" fill="url(#paint6_linear_30_89)"/>
</g>
<path d="M351.497 403.978V411H350.609V405.086L348.82 405.738V404.937L351.357 403.978H351.497ZM358.682 410.271V411H354.111V410.362L356.398 407.815C356.68 407.502 356.897 407.236 357.051 407.019C357.207 406.798 357.316 406.602 357.377 406.429C357.441 406.253 357.473 406.074 357.473 405.892C357.473 405.662 357.425 405.454 357.329 405.268C357.236 405.08 357.099 404.929 356.916 404.817C356.734 404.706 356.514 404.65 356.255 404.65C355.944 404.65 355.685 404.71 355.478 404.832C355.273 404.95 355.119 405.116 355.017 405.331C354.915 405.545 354.864 405.791 354.864 406.069H353.976C353.976 405.676 354.063 405.316 354.235 404.99C354.408 404.664 354.664 404.405 355.003 404.213C355.342 404.018 355.759 403.921 356.255 403.921C356.696 403.921 357.073 403.999 357.386 404.156C357.7 404.309 357.94 404.527 358.106 404.808C358.275 405.086 358.36 405.412 358.36 405.786C358.36 405.991 358.325 406.199 358.255 406.41C358.187 406.618 358.093 406.826 357.972 407.033C357.853 407.241 357.714 407.446 357.554 407.647C357.398 407.849 357.23 408.047 357.051 408.242L355.18 410.271H358.682ZM360.61 406.842V411H359.718V405.81H360.562L360.61 406.842ZM360.427 408.209L360.015 408.194C360.018 407.839 360.064 407.511 360.154 407.211C360.244 406.907 360.376 406.643 360.552 406.419C360.728 406.196 360.947 406.023 361.209 405.901C361.471 405.777 361.775 405.714 362.121 405.714C362.364 405.714 362.587 405.75 362.792 405.82C362.997 405.887 363.174 405.994 363.324 406.141C363.475 406.288 363.591 406.477 363.675 406.707C363.758 406.937 363.799 407.216 363.799 407.542V411H362.912V407.585C362.912 407.313 362.866 407.096 362.773 406.933C362.683 406.77 362.555 406.651 362.389 406.578C362.223 406.501 362.028 406.463 361.804 406.463C361.542 406.463 361.323 406.509 361.147 406.602C360.971 406.694 360.83 406.822 360.725 406.985C360.619 407.149 360.543 407.336 360.495 407.547C360.45 407.754 360.427 407.975 360.427 408.209ZM363.79 407.719L363.195 407.902C363.198 407.617 363.244 407.344 363.334 407.081C363.427 406.819 363.559 406.586 363.732 406.381C363.908 406.176 364.124 406.015 364.38 405.897C364.635 405.775 364.928 405.714 365.257 405.714C365.536 405.714 365.782 405.751 365.996 405.825C366.213 405.898 366.396 406.012 366.543 406.165C366.693 406.316 366.807 406.509 366.883 406.746C366.96 406.982 366.998 407.264 366.998 407.59V411H366.106V407.58C366.106 407.289 366.06 407.064 365.967 406.904C365.878 406.741 365.75 406.627 365.583 406.563C365.42 406.496 365.225 406.463 364.998 406.463C364.803 406.463 364.631 406.496 364.48 406.563C364.33 406.631 364.204 406.723 364.101 406.842C363.999 406.957 363.921 407.089 363.866 407.24C363.815 407.39 363.79 407.55 363.79 407.719ZM373.838 410.113V407.441C373.838 407.236 373.796 407.059 373.713 406.909C373.633 406.755 373.512 406.637 373.349 406.554C373.186 406.471 372.984 406.429 372.744 406.429C372.521 406.429 372.324 406.467 372.155 406.544C371.988 406.621 371.857 406.722 371.761 406.846C371.668 406.971 371.622 407.105 371.622 407.249H370.735C370.735 407.064 370.783 406.88 370.879 406.698C370.975 406.515 371.112 406.351 371.291 406.204C371.473 406.053 371.691 405.935 371.943 405.849C372.199 405.759 372.484 405.714 372.797 405.714C373.175 405.714 373.507 405.778 373.795 405.906C374.086 406.034 374.313 406.228 374.476 406.487C374.642 406.742 374.725 407.064 374.725 407.451V409.868C374.725 410.041 374.74 410.225 374.769 410.42C374.801 410.615 374.847 410.783 374.908 410.923V411H373.982C373.937 410.898 373.902 410.762 373.876 410.592C373.851 410.42 373.838 410.26 373.838 410.113ZM373.992 407.854L374.001 408.477H373.104C372.852 408.477 372.626 408.498 372.428 408.539C372.23 408.578 372.063 408.637 371.929 408.717C371.795 408.797 371.692 408.898 371.622 409.019C371.552 409.137 371.517 409.277 371.517 409.436C371.517 409.599 371.553 409.748 371.627 409.882C371.7 410.017 371.811 410.124 371.958 410.204C372.108 410.281 372.292 410.319 372.509 410.319C372.781 410.319 373.021 410.261 373.229 410.146C373.437 410.031 373.601 409.89 373.723 409.724C373.848 409.558 373.915 409.396 373.924 409.24L374.303 409.667C374.281 409.801 374.22 409.95 374.121 410.113C374.022 410.276 373.889 410.432 373.723 410.583C373.56 410.73 373.365 410.853 373.138 410.952C372.914 411.048 372.661 411.096 372.38 411.096C372.028 411.096 371.72 411.027 371.454 410.89C371.192 410.752 370.987 410.568 370.84 410.338C370.696 410.105 370.624 409.844 370.624 409.556C370.624 409.278 370.679 409.033 370.788 408.822C370.896 408.608 371.053 408.431 371.258 408.29C371.462 408.146 371.708 408.037 371.996 407.964C372.284 407.89 372.605 407.854 372.96 407.854H373.992ZM379.483 405.81H380.289V410.89C380.289 411.347 380.196 411.737 380.011 412.06C379.825 412.383 379.566 412.628 379.234 412.794C378.905 412.963 378.524 413.048 378.092 413.048C377.913 413.048 377.702 413.019 377.459 412.962C377.219 412.907 376.983 412.813 376.749 412.679C376.519 412.548 376.326 412.37 376.169 412.146L376.634 411.619C376.852 411.881 377.079 412.063 377.315 412.166C377.555 412.268 377.792 412.319 378.025 412.319C378.307 412.319 378.55 412.266 378.754 412.161C378.959 412.055 379.117 411.899 379.229 411.691C379.344 411.486 379.402 411.233 379.402 410.933V406.952L379.483 405.81ZM375.91 408.463V408.362C375.91 407.965 375.956 407.606 376.049 407.283C376.145 406.957 376.281 406.677 376.457 406.443C376.636 406.21 376.852 406.031 377.104 405.906C377.357 405.778 377.642 405.714 377.958 405.714C378.284 405.714 378.569 405.772 378.812 405.887C379.058 405.999 379.266 406.164 379.435 406.381C379.608 406.595 379.744 406.854 379.843 407.158C379.942 407.462 380.011 407.806 380.049 408.189V408.631C380.014 409.011 379.945 409.353 379.843 409.657C379.744 409.961 379.608 410.22 379.435 410.434C379.266 410.648 379.058 410.813 378.812 410.928C378.566 411.04 378.278 411.096 377.949 411.096C377.638 411.096 377.357 411.03 377.104 410.899C376.855 410.768 376.641 410.584 376.462 410.348C376.283 410.111 376.145 409.833 376.049 409.513C375.956 409.19 375.91 408.84 375.91 408.463ZM376.797 408.362V408.463C376.797 408.722 376.823 408.965 376.874 409.192C376.928 409.419 377.01 409.619 377.119 409.791C377.231 409.964 377.373 410.1 377.546 410.199C377.718 410.295 377.925 410.343 378.164 410.343C378.459 410.343 378.702 410.281 378.893 410.156C379.085 410.031 379.237 409.866 379.349 409.662C379.464 409.457 379.554 409.235 379.618 408.995V407.839C379.582 407.663 379.528 407.494 379.455 407.331C379.384 407.165 379.291 407.017 379.176 406.89C379.064 406.758 378.925 406.654 378.759 406.578C378.593 406.501 378.398 406.463 378.174 406.463C377.931 406.463 377.721 406.514 377.546 406.616C377.373 406.715 377.231 406.853 377.119 407.029C377.01 407.201 376.928 407.403 376.874 407.633C376.823 407.86 376.797 408.103 376.797 408.362ZM381.402 408.463V408.352C381.402 407.978 381.456 407.631 381.565 407.312C381.674 406.989 381.83 406.709 382.035 406.472C382.24 406.232 382.487 406.047 382.778 405.916C383.069 405.782 383.396 405.714 383.757 405.714C384.121 405.714 384.449 405.782 384.74 405.916C385.034 406.047 385.284 406.232 385.488 406.472C385.696 406.709 385.855 406.989 385.963 407.312C386.072 407.631 386.126 407.978 386.126 408.352V408.463C386.126 408.837 386.072 409.184 385.963 409.504C385.855 409.823 385.696 410.103 385.488 410.343C385.284 410.58 385.036 410.765 384.745 410.899C384.457 411.03 384.131 411.096 383.767 411.096C383.402 411.096 383.074 411.03 382.783 410.899C382.492 410.765 382.243 410.58 382.035 410.343C381.83 410.103 381.674 409.823 381.565 409.504C381.456 409.184 381.402 408.837 381.402 408.463ZM382.289 408.352V408.463C382.289 408.722 382.32 408.966 382.38 409.197C382.441 409.424 382.532 409.625 382.654 409.801C382.778 409.977 382.934 410.116 383.119 410.218C383.304 410.317 383.52 410.367 383.767 410.367C384.01 410.367 384.222 410.317 384.404 410.218C384.59 410.116 384.743 409.977 384.865 409.801C384.986 409.625 385.078 409.424 385.138 409.197C385.202 408.966 385.234 408.722 385.234 408.463V408.352C385.234 408.097 385.202 407.855 385.138 407.628C385.078 407.398 384.985 407.195 384.86 407.019C384.739 406.84 384.585 406.699 384.4 406.597C384.217 406.495 384.003 406.443 383.757 406.443C383.514 406.443 383.3 406.495 383.114 406.597C382.932 406.699 382.778 406.84 382.654 407.019C382.532 407.195 382.441 407.398 382.38 407.628C382.32 407.855 382.289 408.097 382.289 408.352Z" fill="#999999"/>
<path d="M115.491 443.936C113.731 443.936 112.339 443.696 111.315 443.216C110.291 442.736 109.555 441.936 109.107 440.816C108.675 439.68 108.459 438.152 108.459 436.232V432.152C108.459 430.776 108.715 429.6 109.227 428.624C109.739 427.632 110.459 426.872 111.387 426.344C112.331 425.816 113.443 425.552 114.723 425.552C116.579 425.552 118.043 426.08 119.115 427.136C120.187 428.192 120.723 429.864 120.723 432.152V438.728H122.139V440.288H119.043V439.304C118.659 439.704 118.163 440.008 117.555 440.216C116.963 440.408 116.331 440.504 115.659 440.504C114.171 440.504 113.011 440.136 112.179 439.4C111.363 438.648 110.955 437.6 110.955 436.256C110.955 434.976 111.363 433.984 112.179 433.28C113.011 432.576 114.171 432.224 115.659 432.224C116.443 432.224 117.131 432.352 117.723 432.608C118.331 432.848 118.771 433.184 119.043 433.616V432.152C119.043 430.28 118.667 428.976 117.915 428.24C117.163 427.488 116.099 427.112 114.723 427.112C113.251 427.112 112.115 427.536 111.315 428.384C110.531 429.232 110.139 430.488 110.139 432.152V436.232C110.139 437.768 110.307 438.984 110.643 439.88C110.979 440.776 111.539 441.416 112.323 441.8C113.123 442.184 114.195 442.376 115.539 442.376H122.139V443.936H115.491ZM115.659 438.944C116.651 438.944 117.459 438.728 118.083 438.296C118.723 437.864 119.043 437.272 119.043 436.52V436.04C119.043 435.336 118.723 434.784 118.083 434.384C117.459 433.984 116.651 433.784 115.659 433.784C114.731 433.784 113.995 434.008 113.451 434.456C112.907 434.904 112.635 435.504 112.635 436.256C112.635 437.088 112.907 437.744 113.451 438.224C113.995 438.704 114.731 438.944 115.659 438.944ZM129.257 434.816C130.009 434.816 130.697 434.928 131.321 435.152C131.961 435.36 132.401 435.632 132.641 435.968L132.761 436.136V432.68H125.681V431H134.561V443H132.761V441.872L132.641 441.992C132.257 442.376 131.769 442.696 131.177 442.952C130.585 443.208 129.985 443.336 129.377 443.336C128.401 443.336 127.537 443.152 126.785 442.784C126.049 442.416 125.465 441.904 125.033 441.248C124.617 440.592 124.409 439.84 124.409 438.992C124.409 438.176 124.609 437.456 125.009 436.832C125.425 436.192 126.001 435.696 126.737 435.344C127.473 434.992 128.313 434.816 129.257 434.816ZM126.209 438.992C126.209 439.776 126.505 440.416 127.097 440.912C127.689 441.408 128.449 441.656 129.377 441.656C130.369 441.656 131.177 441.408 131.801 440.912C132.441 440.416 132.761 439.776 132.761 438.992C132.761 438.256 132.433 437.656 131.777 437.192C131.137 436.728 130.297 436.496 129.257 436.496C128.361 436.496 127.625 436.728 127.049 437.192C126.489 437.656 126.209 438.256 126.209 438.992ZM145.28 443H143.144L138.248 431H140.24L144.224 440.744L148.184 431H150.176L145.28 443ZM157.055 428.456V425.552H159.959V428.456H157.055ZM159.959 441.32H165.311V443H152.759V441.32H158.159V432.128H153.935V430.448H159.959V441.32Z" fill="black"/>
</g>
<defs>
<filter id="filter0_i_30_89" x="15" y="-11" width="400" height="584" filterUnits="userSpaceOnUse" color-interpolation-filters="sRGB">
<feFlood flood-opacity="0" result="BackgroundImageFix"/>
<feBlend mode="normal" in="SourceGraphic" in2="BackgroundImageFix" result="shape"/>
<feColorMatrix in="SourceAlpha" type="matrix" values="0 0 0 0 0 0 0 0 0 0 0 0 0 0 0 0 0 0 127 0" result="hardAlpha"/>
<feOffset dy="-11"/>
<feGaussianBlur stdDeviation="6.45"/>
<feComposite in2="hardAlpha" operator="arithmetic" k2="-1" k3="1"/>
<feColorMatrix type="matrix" values="0 0 0 0 1 0 0 0 0 1 0 0 0 0 1 0 0 0 0.25 0"/>
<feBlend mode="normal" in2="shape" result="effect1_innerShadow_30_89"/>
</filter>
<filter id="filter1_f_30_89" x="0" y="372" width="416" height="180" filterUnits="userSpaceOnUse" color-interpolation-filters="sRGB">
<feFlood flood-opacity="0" result="BackgroundImageFix"/>
<feBlend mode="normal" in="SourceGraphic" in2="BackgroundImageFix" result="shape"/>
<feGaussianBlur stdDeviation="31.5" result="effect1_foregroundBlur_30_89"/>
</filter>
<filter id="filter2_d_30_89" x="157.013" y="515.904" width="116.678" height="21.128" filterUnits="userSpaceOnUse" color-interpolation-filters="sRGB">
<feFlood flood-opacity="0" result="BackgroundImageFix"/>
<feColorMatrix in="SourceAlpha" type="matrix" values="0 0 0 0 0 0 0 0 0 0 0 0 0 0 0 0 0 0 127 0" result="hardAlpha"/>
<feOffset dy="1"/>
<feGaussianBlur stdDeviation="0.8"/>
<feComposite in2="hardAlpha" operator="out"/>
<feColorMatrix type="matrix" values="0 0 0 0 1 0 0 0 0 1 0 0 0 0 1 0 0 0 0.25 0"/>
<feBlend mode="normal" in2="BackgroundImageFix" result="effect1_dropShadow_30_89"/>
<feBlend mode="normal" in="SourceGraphic" in2="effect1_dropShadow_30_89" result="shape"/>
</filter>
<filter id="filter3_i_30_89" x="15" y="0" width="400" height="490" filterUnits="userSpaceOnUse" color-interpolation-filters="sRGB">
<feFlood flood-opacity="0" result="BackgroundImageFix"/>
<feBlend mode="normal" in="SourceGraphic" in2="BackgroundImageFix" result="shape"/>
<feColorMatrix in="SourceAlpha" type="matrix" values="0 0 0 0 0 0 0 0 0 0 0 0 0 0 0 0 0 0 127 0" result="hardAlpha"/>
<feOffset dy="1"/>
<feGaussianBlur stdDeviation="2.15"/>
<feComposite in2="hardAlpha" operator="arithmetic" k2="-1" k3="1"/>
<feColorMatrix type="matrix" values="0 0 0 0 0 0 0 0 0 0 0 0 0 0 0 0 0 0 0.25 0"/>
<feBlend mode="normal" in2="shape" result="effect1_innerShadow_30_89"/>
</filter>
<filter id="filter4_f_30_89" x="-99.2" y="442.8" width="613.4" height="307.4" filterUnits="userSpaceOnUse" color-interpolation-filters="sRGB">
<feFlood flood-opacity="0" result="BackgroundImageFix"/>
<feBlend mode="normal" in="SourceGraphic" in2="BackgroundImageFix" result="shape"/>
<feGaussianBlur stdDeviation="44.1" result="effect1_foregroundBlur_30_89"/>
</filter>
<filter id="filter5_d_30_89" x="31" y="23" width="368" height="379" filterUnits="userSpaceOnUse" color-interpolation-filters="sRGB">
<feFlood flood-opacity="0" result="BackgroundImageFix"/>
<feColorMatrix in="SourceAlpha" type="matrix" values="0 0 0 0 0 0 0 0 0 0 0 0 0 0 0 0 0 0 127 0" result="hardAlpha"/>
<feOffset dy="4"/>
<feGaussianBlur stdDeviation="2"/>
<feComposite in2="hardAlpha" operator="out"/>
<feColorMatrix type="matrix" values="0 0 0 0 0 0 0 0 0 0 0 0 0 0 0 0 0 0 0.25 0"/>
<feBlend mode="normal" in2="BackgroundImageFix" result="effect1_dropShadow_30_89"/>
<feBlend mode="normal" in="SourceGraphic" in2="effect1_dropShadow_30_89" result="shape"/>
</filter>
<filter id="filter6_d_30_89" x="336.8" y="22.8" width="60.4645" height="45.4645" filterUnits="userSpaceOnUse" color-interpolation-filters="sRGB">
<feFlood flood-opacity="0" result="BackgroundImageFix"/>
<feColorMatrix in="SourceAlpha" type="matrix" values="0 0 0 0 0 0 0 0 0 0 0 0 0 0 0 0 0 0 127 0" result="hardAlpha"/>
<feOffset dy="2"/>
<feGaussianBlur stdDeviation="1.1"/>
<feComposite in2="hardAlpha" operator="out"/>
<feColorMatrix type="matrix" values="0 0 0 0 0 0 0 0 0 0 0 0 0 0 0 0 0 0 0.25 0"/>
<feBlend mode="normal" in2="BackgroundImageFix" result="effect1_dropShadow_30_89"/>
<feBlend mode="normal" in="SourceGraphic" in2="effect1_dropShadow_30_89" result="shape"/>
</filter>
<filter id="filter7_di_30_89" x="103" y="108" width="224" height="210.5" filterUnits="userSpaceOnUse" color-interpolation-filters="sRGB">
<feFlood flood-opacity="0" result="BackgroundImageFix"/>
<feColorMatrix in="SourceAlpha" type="matrix" values="0 0 0 0 0 0 0 0 0 0 0 0 0 0 0 0 0 0 127 0" result="hardAlpha"/>
<feOffset dy="4"/>
<feGaussianBlur stdDeviation="2"/>
<feComposite in2="hardAlpha" operator="out"/>
<feColorMatrix type="matrix" values="0 0 0 0 0 0 0 0 0 0 0 0 0 0 0 0 0 0 0.25 0"/>
<feBlend mode="normal" in2="BackgroundImageFix" result="effect1_dropShadow_30_89"/>
<feBlend mode="normal" in="SourceGraphic" in2="effect1_dropShadow_30_89" result="shape"/>
<feColorMatrix in="SourceAlpha" type="matrix" values="0 0 0 0 0 0 0 0 0 0 0 0 0 0 0 0 0 0 127 0" result="hardAlpha"/>
<feOffset dy="5"/>
<feGaussianBlur stdDeviation="2"/>
<feComposite in2="hardAlpha" operator="arithmetic" k2="-1" k3="1"/>
<feColorMatrix type="matrix" values="0 0 0 0 1 0 0 0 0 1 0 0 0 0 1 0 0 0 0.25 0"/>
<feBlend mode="normal" in2="shape" result="effect2_innerShadow_30_89"/>
</filter>
<filter id="filter8_di_30_89" x="19.6" y="398.6" width="90.8" height="90.8" filterUnits="userSpaceOnUse" color-interpolation-filters="sRGB">
<feFlood flood-opacity="0" result="BackgroundImageFix"/>
<feColorMatrix in="SourceAlpha" type="matrix" values="0 0 0 0 0 0 0 0 0 0 0 0 0 0 0 0 0 0 127 0" result="hardAlpha"/>
<feOffset/>
<feGaussianBlur stdDeviation="7.7"/>
<feComposite in2="hardAlpha" operator="out"/>
<feColorMatrix type="matrix" values="0 0 0 0 0 0 0 0 0 0 0 0 0 0 0 0 0 0 0.25 0"/>
<feBlend mode="normal" in2="BackgroundImageFix" result="effect1_dropShadow_30_89"/>
<feBlend mode="normal" in="SourceGraphic" in2="effect1_dropShadow_30_89" result="shape"/>
<feColorMatrix in="SourceAlpha" type="matrix" values="0 0 0 0 0 0 0 0 0 0 0 0 0 0 0 0 0 0 127 0" result="hardAlpha"/>
<feOffset dy="4"/>
<feGaussianBlur stdDeviation="2"/>
<feComposite in2="hardAlpha" operator="arithmetic" k2="-1" k3="1"/>
<feColorMatrix type="matrix" values="0 0 0 0 1 0 0 0 0 1 0 0 0 0 1 0 0 0 0.25 0"/>
<feBlend mode="normal" in2="shape" result="effect2_innerShadow_30_89"/>
</filter>
<filter id="filter9_di_30_89" x="38" y="422" width="54.9333" height="52" filterUnits="userSpaceOnUse" color-interpolation-filters="sRGB">
<feFlood flood-opacity="0" result="BackgroundImageFix"/>
<feColorMatrix in="SourceAlpha" type="matrix" values="0 0 0 0 0 0 0 0 0 0 0 0 0 0 0 0 0 0 127 0" result="hardAlpha"/>
<feOffset dy="4"/>
<feGaussianBlur stdDeviation="2"/>
<feComposite in2="hardAlpha" operator="out"/>
<feColorMatrix type="matrix" values="0 0 0 0 0 0 0 0 0 0 0 0 0 0 0 0 0 0 0.25 0"/>
<feBlend mode="normal" in2="BackgroundImageFix" result="effect1_dropShadow_30_89"/>
<feBlend mode="normal" in="SourceGraphic" in2="effect1_dropShadow_30_89" result="shape"/>
<feColorMatrix in="SourceAlpha" type="matrix" values="0 0 0 0 0 0 0 0 0 0 0 0 0 0 0 0 0 0 127 0" result="hardAlpha"/>
<feOffset dy="5"/>
<feGaussianBlur stdDeviation="2"/>
<feComposite in2="hardAlpha" operator="arithmetic" k2="-1" k3="1"/>
<feColorMatrix type="matrix" values="0 0 0 0 1 0 0 0 0 1 0 0 0 0 1 0 0 0 0.25 0"/>
<feBlend mode="normal" in2="shape" result="effect2_innerShadow_30_89"/>
</filter>
<linearGradient id="paint0_linear_30_89" x1="215" y1="506" x2="215" y2="586.5" gradientUnits="userSpaceOnUse">
<stop stop-color="white"/>
<stop offset="1" stop-color="#999999"/>
</linearGradient>
<linearGradient id="paint1_linear_30_89" x1="215" y1="0" x2="215" y2="489" gradientUnits="userSpaceOnUse">
<stop stop-color="white"/>
<stop offset="1" stop-color="white"/>
</linearGradient>
<linearGradient id="paint2_linear_30_89" x1="214.5" y1="108" x2="214.5" y2="208" gradientUnits="userSpaceOnUse">
<stop/>
<stop offset="1" stop-color="#3D3D3D"/>
</linearGradient>
<linearGradient id="paint3_linear_30_89" x1="215" y1="219.496" x2="215" y2="310.5" gradientUnits="userSpaceOnUse">
<stop/>
<stop offset="1" stop-color="#3D3D3D"/>
</linearGradient>
<linearGradient id="paint4_linear_30_89" x1="65" y1="414" x2="65" y2="474" gradientUnits="userSpaceOnUse">
<stop/>
<stop offset="1" stop-color="#1E1E1E"/>
</linearGradient>
<linearGradient id="paint5_linear_30_89" x1="65.358" y1="422" x2="65.358" y2="443.728" gradientUnits="userSpaceOnUse">
<stop stop-color="#404040"/>
<stop offset="1" stop-color="white"/>
</linearGradient>
<linearGradient id="paint6_linear_30_89" x1="65.4667" y1="446.226" x2="65.4667" y2="466" gradientUnits="userSpaceOnUse">
<stop stop-color="#404040"/>
<stop offset="1" stop-color="white"/>
</linearGradient>
</defs>
</svg>
