<svg width="720" height="445" viewBox="0 0 720 445" fill="none" xmlns="http://www.w3.org/2000/svg">
<rect x="160" y="156" width="400" height="280" rx="24" fill="white"/>
<g filter="url(#filter0_d_30_25)">
<rect x="160" y="156" width="400" height="120" rx="18" fill="white"/>
</g>
<rect x="422" y="181" width="92" height="70" rx="23" fill="#D9D9D9"/>
<path d="M470 223V209H474V223H470ZM462 223V209H466V223H462Z" fill="#1D1B20"/>
<rect x="206" y="181" width="92" height="70" rx="23" fill="#D9D9D9"/>
<path d="M252 212C253.967 212 255.904 212.396 257.812 213.188C259.721 213.979 261.417 215.167 262.9 216.75C263.1 216.95 263.2 217.183 263.2 217.45C263.2 217.717 263.1 217.95 262.9 218.15L260.6 220.4C260.417 220.583 260.204 220.683 259.962 220.7C259.721 220.717 259.5 220.65 259.3 220.5L256.4 218.3C256.267 218.2 256.167 218.083 256.1 217.95C256.033 217.817 256 217.667 256 217.5V214.65C255.367 214.45 254.717 214.292 254.05 214.175C253.383 214.058 252.7 214 252 214C251.3 214 250.617 214.058 249.95 214.175C249.283 214.292 248.633 214.45 248 214.65V217.5C248 217.667 247.967 217.817 247.9 217.95C247.833 218.083 247.733 218.2 247.6 218.3L244.7 220.5C244.5 220.65 244.279 220.717 244.037 220.7C243.796 220.683 243.583 220.583 243.4 220.4L241.1 218.15C240.9 217.95 240.8 217.717 240.8 217.45C240.8 217.183 240.9 216.95 241.1 216.75C242.567 215.167 244.258 213.979 246.175 213.188C248.092 212.396 250.033 212 252 212Z" fill="#1D1B20"/>
<rect x="314" y="181" width="92" height="70" rx="23" fill="#FF9494"/>
<circle cx="360" cy="216" r="8" fill="white"/>
<ellipse cx="359.5" cy="215.5" rx="22.5" ry="21.5" fill="url(#paint0_radial_30_25)"/>
<g filter="url(#filter1_d_30_25)">
<g filter="url(#filter2_i_30_25)">
<rect x="172" y="290" width="376" height="132" rx="11" fill="url(#paint1_linear_30_25)"/>
</g>
<path d="M195.845 317.552C196.561 317.679 197.127 318.026 197.543 318.592C197.959 319.147 198.167 319.834 198.167 320.655C198.167 321.683 197.809 322.498 197.093 323.099C196.376 323.7 195.4 324 194.163 324H189.83V311.693H193.799C194.55 311.693 195.209 311.826 195.775 312.092C196.341 312.358 196.786 312.728 197.11 313.201C197.433 313.675 197.595 314.224 197.595 314.848C197.595 315.518 197.428 316.108 197.093 316.616C196.769 317.124 196.353 317.436 195.845 317.552ZM191.13 312.941V316.963H194.042C194.689 316.963 195.221 316.789 195.637 316.443C196.053 316.084 196.261 315.622 196.261 315.056C196.261 314.432 196.053 313.924 195.637 313.531C195.221 313.138 194.689 312.941 194.042 312.941H191.13ZM191.13 318.193V322.787H194.423C195.174 322.787 195.769 322.584 196.209 322.18C196.648 321.764 196.867 321.204 196.867 320.499C196.867 319.782 196.63 319.222 196.157 318.817C195.683 318.401 195.036 318.193 194.215 318.193H191.13ZM206.515 322.787V315.333H207.815V324H203.846C202.76 324 201.928 323.769 201.35 323.307C200.772 322.833 200.483 322.07 200.483 321.019V315.333H201.783V320.845C201.783 321.308 201.847 321.683 201.974 321.972C202.101 322.249 202.326 322.457 202.65 322.596C202.985 322.723 203.464 322.787 204.088 322.787H206.515ZM213.355 313.496V311.399H215.452V313.496H213.355ZM215.452 322.787H219.318V324H210.252V322.787H214.152V316.148H211.102V314.935H215.452V322.787ZM229.364 324H220.646V322.787H224.199V312.612H221.495V311.399H225.499V322.787H229.364V324ZM237.279 322.787H238.7V324H237.036C235.95 324 235.118 323.792 234.54 323.376C233.962 322.948 233.673 322.163 233.673 321.019V316.876H230.848V315.663H233.673V312.959H234.973V315.663H238.665V316.876H234.973V320.845C234.973 321.365 235.037 321.764 235.164 322.041C235.291 322.319 235.522 322.515 235.857 322.631C236.193 322.735 236.666 322.787 237.279 322.787ZM242.801 319.753V318.627H248.435V319.753H242.801ZM254.928 313.496V311.399H257.025V313.496H254.928ZM257.025 322.787H260.891V324H251.825V322.787H255.725V316.148H252.675V314.935H257.025V322.787ZM262.86 324V315.333H270.192L270.209 324H268.909L268.892 316.547H264.16V324H262.86ZM287.39 323.081C288.904 323.081 289.805 322.047 290.094 319.979H291.394C291.036 322.868 289.701 324.306 287.39 324.295C285.946 324.283 284.831 323.717 284.045 322.596C283.259 321.475 282.866 319.886 282.866 317.829C282.866 315.761 283.253 314.166 284.028 313.045C284.802 311.924 285.905 311.364 287.338 311.364C289.696 311.364 291.065 312.808 291.446 315.697H290.146C289.892 313.617 288.939 312.577 287.286 312.577C286.316 312.577 285.564 313.034 285.033 313.947C284.513 314.848 284.253 316.142 284.253 317.829C284.253 319.505 284.524 320.799 285.068 321.712C285.611 322.625 286.385 323.081 287.39 323.081ZM297.211 318.089C297.755 318.089 298.251 318.17 298.702 318.332C299.164 318.482 299.482 318.679 299.655 318.921L299.742 319.043V316.547H294.629V315.333H301.042V324H299.742V323.185L299.655 323.272C299.378 323.549 299.026 323.78 298.598 323.965C298.171 324.15 297.737 324.243 297.298 324.243C296.593 324.243 295.969 324.11 295.426 323.844C294.895 323.578 294.473 323.208 294.161 322.735C293.86 322.261 293.71 321.718 293.71 321.105C293.71 320.516 293.855 319.996 294.143 319.545C294.444 319.083 294.86 318.725 295.391 318.471C295.923 318.216 296.53 318.089 297.211 318.089ZM295.01 321.105C295.01 321.672 295.224 322.134 295.651 322.492C296.079 322.85 296.628 323.029 297.298 323.029C298.015 323.029 298.598 322.85 299.049 322.492C299.511 322.134 299.742 321.672 299.742 321.105C299.742 320.574 299.505 320.14 299.031 319.805C298.569 319.47 297.963 319.303 297.211 319.303C296.564 319.303 296.033 319.47 295.617 319.805C295.212 320.14 295.01 320.574 295.01 321.105ZM312.51 324H303.791V322.787H307.345V312.612H304.641V311.399H308.645V322.787H312.51V324ZM322.903 324H314.185V322.787H317.738V312.612H315.034V311.399H319.038V322.787H322.903V324ZM343.724 324H342.06L338.975 318.419H336.618V324H335.318V311.693H339.963C341.061 311.693 341.904 311.988 342.494 312.577C343.095 313.155 343.395 313.993 343.395 315.091C343.395 316.038 343.152 316.795 342.667 317.361C342.193 317.928 341.512 318.268 340.622 318.384L343.724 324ZM336.618 312.907V317.205H339.963C340.668 317.205 341.205 317.026 341.575 316.668C341.945 316.298 342.118 315.772 342.095 315.091C342.095 314.386 341.91 313.848 341.54 313.479C341.171 313.097 340.645 312.907 339.963 312.907H336.618ZM345.416 319.58C345.416 318.621 345.578 317.795 345.902 317.101C346.237 316.408 346.705 315.876 347.306 315.507C347.918 315.125 348.635 314.935 349.455 314.935C350.241 314.935 350.923 315.125 351.5 315.507C352.078 315.888 352.523 316.437 352.835 317.153C353.147 317.858 353.303 318.696 353.303 319.667V319.805H346.699C346.757 320.788 347.046 321.568 347.566 322.145C348.086 322.723 348.756 323.012 349.576 323.012C350.316 323.012 350.899 322.827 351.327 322.457C351.766 322.088 352.02 321.568 352.09 320.897H353.303C353.187 321.96 352.806 322.781 352.159 323.359C351.523 323.936 350.663 324.225 349.576 324.225C348.733 324.225 347.999 324.04 347.375 323.671C346.751 323.289 346.266 322.752 345.919 322.059C345.584 321.354 345.416 320.528 345.416 319.58ZM349.455 316.148C348.715 316.125 348.109 316.333 347.635 316.772C347.173 317.211 346.913 317.818 346.855 318.592H351.951C351.905 317.864 351.656 317.28 351.206 316.841C350.755 316.402 350.171 316.171 349.455 316.148ZM360.091 323.012C360.715 323.012 361.252 322.821 361.703 322.44C362.165 322.059 362.471 321.544 362.622 320.897H363.887C363.69 321.914 363.251 322.723 362.57 323.324C361.888 323.925 361.062 324.225 360.091 324.225C359.247 324.225 358.514 324.04 357.89 323.671C357.266 323.289 356.78 322.752 356.434 322.059C356.098 321.354 355.931 320.528 355.931 319.58C355.931 318.621 356.093 317.795 356.416 317.101C356.751 316.408 357.219 315.876 357.82 315.507C358.433 315.125 359.155 314.935 359.987 314.935C361.015 314.935 361.882 315.252 362.587 315.888C363.292 316.512 363.725 317.361 363.887 318.436H362.622C362.506 317.731 362.206 317.176 361.72 316.772C361.246 316.356 360.669 316.148 359.987 316.148C359.12 316.148 358.438 316.454 357.942 317.067C357.456 317.679 357.219 318.517 357.231 319.58C357.254 320.632 357.52 321.469 358.028 322.093C358.548 322.706 359.236 323.012 360.091 323.012ZM366.307 319.58C366.307 318.667 366.48 317.864 366.827 317.171C367.185 316.477 367.676 315.934 368.3 315.541C368.924 315.137 369.641 314.935 370.449 314.935C371.247 314.935 371.952 315.137 372.564 315.541C373.177 315.934 373.656 316.477 374.003 317.171C374.349 317.864 374.523 318.667 374.523 319.58C374.523 320.481 374.349 321.284 374.003 321.989C373.668 322.683 373.2 323.232 372.599 323.636C371.998 324.029 371.305 324.225 370.519 324.225C369.687 324.225 368.953 324.029 368.317 323.636C367.693 323.232 367.202 322.683 366.844 321.989C366.486 321.284 366.307 320.481 366.307 319.58ZM370.519 323.012C371.05 323.012 371.518 322.868 371.923 322.579C372.327 322.278 372.645 321.874 372.876 321.365C373.107 320.845 373.223 320.25 373.223 319.58C373.223 318.91 373.101 318.32 372.859 317.812C372.628 317.292 372.304 316.888 371.888 316.599C371.472 316.298 370.993 316.148 370.449 316.148C369.883 316.148 369.381 316.298 368.941 316.599C368.514 316.888 368.179 317.292 367.936 317.812C367.705 318.32 367.595 318.91 367.607 319.58C367.618 320.25 367.745 320.845 367.988 321.365C368.242 321.874 368.589 322.278 369.028 322.579C369.467 322.868 369.964 323.012 370.519 323.012ZM378.225 324V315.333H385.107V316.633H379.525V324H378.225ZM394.911 324H393.611V322.943C393.287 323.347 392.883 323.665 392.397 323.896C391.912 324.116 391.363 324.225 390.751 324.225C389.526 324.225 388.549 323.821 387.821 323.012C387.105 322.203 386.747 321.105 386.747 319.719C386.747 318.736 386.908 317.887 387.232 317.171C387.555 316.454 388.018 315.905 388.619 315.524C389.219 315.131 389.93 314.935 390.751 314.935C391.975 314.935 392.929 315.391 393.611 316.304V312.612H392.64V311.399H394.911V324ZM388.047 319.719C388.047 320.736 388.289 321.544 388.775 322.145C389.271 322.746 389.942 323.047 390.785 323.047C391.652 323.047 392.339 322.746 392.848 322.145C393.356 321.544 393.611 320.736 393.611 319.719C393.611 318.609 393.356 317.731 392.848 317.084C392.339 316.437 391.652 316.113 390.785 316.113C389.942 316.113 389.271 316.437 388.775 317.084C388.289 317.731 388.047 318.609 388.047 319.719ZM400.433 313.496V311.399H402.53V313.496H400.433ZM402.53 322.787H406.396V324H397.33V322.787H401.23V316.148H398.18V314.935H402.53V322.787ZM408.365 324V315.333H415.697L415.714 324H414.414L414.397 316.547H409.665V324H408.365ZM421.913 314.935C422.502 314.935 423.034 315.044 423.508 315.264C423.981 315.472 424.38 315.778 424.704 316.183V315.351H426.004V324.208C426.004 325.26 425.715 326.016 425.137 326.479C424.559 326.952 423.727 327.189 422.641 327.189H418.481V325.976H422.398C423.022 325.976 423.496 325.907 423.82 325.768C424.155 325.641 424.386 325.433 424.513 325.144C424.64 324.867 424.704 324.497 424.704 324.035V323.047C424.045 323.832 423.144 324.225 422 324.225C420.763 324.225 419.781 323.821 419.053 323.012C418.336 322.192 417.978 321.082 417.978 319.684C417.978 318.713 418.14 317.876 418.464 317.171C418.787 316.454 419.244 315.905 419.833 315.524C420.422 315.131 421.116 314.935 421.913 314.935ZM419.278 319.684C419.278 320.701 419.521 321.51 420.006 322.111C420.503 322.712 421.168 323.012 422 323.012C422.832 323.012 423.49 322.706 423.976 322.093C424.461 321.481 424.704 320.649 424.704 319.597C424.704 318.534 424.449 317.696 423.941 317.084C423.444 316.46 422.768 316.148 421.913 316.148C421.104 316.148 420.463 316.466 419.989 317.101C419.515 317.737 419.278 318.598 419.278 319.684Z" fill="white"/>
<path d="M195.543 356H194.295L191.981 351.814H190.213V356H189.238V346.77H192.722C193.545 346.77 194.178 346.991 194.62 347.433C195.07 347.866 195.296 348.495 195.296 349.318C195.296 350.029 195.114 350.596 194.75 351.021C194.394 351.446 193.883 351.701 193.216 351.788L195.543 356ZM190.213 347.68V350.904H192.722C193.25 350.904 193.653 350.77 193.931 350.501C194.208 350.224 194.338 349.829 194.321 349.318C194.321 348.789 194.182 348.386 193.905 348.109C193.627 347.823 193.233 347.68 192.722 347.68H190.213ZM196.812 352.685C196.812 351.966 196.933 351.346 197.176 350.826C197.427 350.306 197.778 349.907 198.229 349.63C198.688 349.344 199.225 349.201 199.841 349.201C200.43 349.201 200.941 349.344 201.375 349.63C201.808 349.916 202.142 350.328 202.376 350.865C202.61 351.394 202.727 352.022 202.727 352.75V352.854H197.774C197.817 353.591 198.034 354.176 198.424 354.609C198.814 355.042 199.316 355.259 199.932 355.259C200.486 355.259 200.924 355.12 201.245 354.843C201.574 354.566 201.765 354.176 201.817 353.673H202.727C202.64 354.47 202.354 355.086 201.869 355.519C201.392 355.952 200.746 356.169 199.932 356.169C199.299 356.169 198.749 356.03 198.281 355.753C197.813 355.467 197.449 355.064 197.189 354.544C196.937 354.015 196.812 353.396 196.812 352.685ZM199.841 350.111C199.286 350.094 198.831 350.25 198.476 350.579C198.129 350.908 197.934 351.363 197.891 351.944H201.713C201.678 351.398 201.492 350.96 201.154 350.631C200.816 350.302 200.378 350.128 199.841 350.111ZM207.818 355.259C208.286 355.259 208.689 355.116 209.027 354.83C209.373 354.544 209.603 354.158 209.716 353.673H210.665C210.517 354.436 210.188 355.042 209.677 355.493C209.165 355.944 208.546 356.169 207.818 356.169C207.185 356.169 206.635 356.03 206.167 355.753C205.699 355.467 205.335 355.064 205.075 354.544C204.823 354.015 204.698 353.396 204.698 352.685C204.698 351.966 204.819 351.346 205.062 350.826C205.313 350.306 205.664 349.907 206.115 349.63C206.574 349.344 207.116 349.201 207.74 349.201C208.511 349.201 209.161 349.439 209.69 349.916C210.218 350.384 210.543 351.021 210.665 351.827H209.716C209.629 351.298 209.404 350.882 209.04 350.579C208.684 350.267 208.251 350.111 207.74 350.111C207.09 350.111 206.578 350.341 206.206 350.8C205.842 351.259 205.664 351.888 205.673 352.685C205.69 353.474 205.889 354.102 206.271 354.57C206.661 355.029 207.176 355.259 207.818 355.259ZM212.48 352.685C212.48 352 212.61 351.398 212.87 350.878C213.138 350.358 213.507 349.951 213.975 349.656C214.443 349.353 214.98 349.201 215.587 349.201C216.185 349.201 216.713 349.353 217.173 349.656C217.632 349.951 217.992 350.358 218.252 350.878C218.512 351.398 218.642 352 218.642 352.685C218.642 353.361 218.512 353.963 218.252 354.492C218 355.012 217.649 355.424 217.199 355.727C216.748 356.022 216.228 356.169 215.639 356.169C215.015 356.169 214.464 356.022 213.988 355.727C213.52 355.424 213.151 355.012 212.883 354.492C212.614 353.963 212.48 353.361 212.48 352.685ZM215.639 355.259C216.037 355.259 216.388 355.151 216.692 354.934C216.995 354.709 217.233 354.405 217.407 354.024C217.58 353.634 217.667 353.188 217.667 352.685C217.667 352.182 217.576 351.74 217.394 351.359C217.22 350.969 216.978 350.666 216.666 350.449C216.354 350.224 215.994 350.111 215.587 350.111C215.162 350.111 214.785 350.224 214.456 350.449C214.135 350.666 213.884 350.969 213.702 351.359C213.528 351.74 213.446 352.182 213.455 352.685C213.463 353.188 213.559 353.634 213.741 354.024C213.931 354.405 214.191 354.709 214.521 354.934C214.85 355.151 215.223 355.259 215.639 355.259ZM221.419 356V349.5H226.58V350.475H222.394V356H221.419ZM233.932 356H232.957V355.207C232.715 355.51 232.411 355.749 232.047 355.922C231.683 356.087 231.272 356.169 230.812 356.169C229.894 356.169 229.161 355.866 228.615 355.259C228.078 354.652 227.809 353.829 227.809 352.789C227.809 352.052 227.931 351.415 228.173 350.878C228.416 350.341 228.763 349.929 229.213 349.643C229.664 349.348 230.197 349.201 230.812 349.201C231.731 349.201 232.446 349.543 232.957 350.228V347.459H232.229V346.549H233.932V356ZM228.784 352.789C228.784 353.552 228.966 354.158 229.33 354.609C229.703 355.06 230.206 355.285 230.838 355.285C231.488 355.285 232.004 355.06 232.385 354.609C232.767 354.158 232.957 353.552 232.957 352.789C232.957 351.957 232.767 351.298 232.385 350.813C232.004 350.328 231.488 350.085 230.838 350.085C230.206 350.085 229.703 350.328 229.33 350.813C228.966 351.298 228.784 351.957 228.784 352.789ZM247.286 356H246.129L243.477 349.5H244.556L246.714 354.778L248.859 349.5H249.938L247.286 356ZM253.664 348.122V346.549H255.237V348.122H253.664ZM255.237 355.09H258.136V356H251.337V355.09H254.262V350.111H251.974V349.201H255.237V355.09ZM265.112 356H264.137V355.207C263.894 355.51 263.591 355.749 263.227 355.922C262.863 356.087 262.451 356.169 261.992 356.169C261.073 356.169 260.341 355.866 259.795 355.259C259.258 354.652 258.989 353.829 258.989 352.789C258.989 352.052 259.11 351.415 259.353 350.878C259.596 350.341 259.942 349.929 260.393 349.643C260.844 349.348 261.377 349.201 261.992 349.201C262.911 349.201 263.626 349.543 264.137 350.228V347.459H263.409V346.549H265.112V356ZM259.964 352.789C259.964 353.552 260.146 354.158 260.51 354.609C260.883 355.06 261.385 355.285 262.018 355.285C262.668 355.285 263.184 355.06 263.565 354.609C263.946 354.158 264.137 353.552 264.137 352.789C264.137 351.957 263.946 351.298 263.565 350.813C263.184 350.328 262.668 350.085 262.018 350.085C261.385 350.085 260.883 350.328 260.51 350.813C260.146 351.298 259.964 351.957 259.964 352.789ZM266.966 352.685C266.966 351.966 267.087 351.346 267.33 350.826C267.581 350.306 267.932 349.907 268.383 349.63C268.842 349.344 269.38 349.201 269.995 349.201C270.584 349.201 271.096 349.344 271.529 349.63C271.962 349.916 272.296 350.328 272.53 350.865C272.764 351.394 272.881 352.022 272.881 352.75V352.854H267.928C267.971 353.591 268.188 354.176 268.578 354.609C268.968 355.042 269.471 355.259 270.086 355.259C270.641 355.259 271.078 355.12 271.399 354.843C271.728 354.566 271.919 354.176 271.971 353.673H272.881C272.794 354.47 272.508 355.086 272.023 355.519C271.546 355.952 270.901 356.169 270.086 356.169C269.453 356.169 268.903 356.03 268.435 355.753C267.967 355.467 267.603 355.064 267.343 354.544C267.092 354.015 266.966 353.396 266.966 352.685ZM269.995 350.111C269.44 350.094 268.985 350.25 268.63 350.579C268.283 350.908 268.088 351.363 268.045 351.944H271.867C271.832 351.398 271.646 350.96 271.308 350.631C270.97 350.302 270.532 350.128 269.995 350.111ZM274.839 352.685C274.839 352 274.969 351.398 275.229 350.878C275.498 350.358 275.866 349.951 276.334 349.656C276.802 349.353 277.339 349.201 277.946 349.201C278.544 349.201 279.073 349.353 279.532 349.656C279.991 349.951 280.351 350.358 280.611 350.878C280.871 351.398 281.001 352 281.001 352.685C281.001 353.361 280.871 353.963 280.611 354.492C280.36 355.012 280.009 355.424 279.558 355.727C279.107 356.022 278.587 356.169 277.998 356.169C277.374 356.169 276.824 356.022 276.347 355.727C275.879 355.424 275.511 355.012 275.242 354.492C274.973 353.963 274.839 353.361 274.839 352.685ZM277.998 355.259C278.397 355.259 278.748 355.151 279.051 354.934C279.354 354.709 279.593 354.405 279.766 354.024C279.939 353.634 280.026 353.188 280.026 352.685C280.026 352.182 279.935 351.74 279.753 351.359C279.58 350.969 279.337 350.666 279.025 350.449C278.713 350.224 278.353 350.111 277.946 350.111C277.521 350.111 277.144 350.224 276.815 350.449C276.494 350.666 276.243 350.969 276.061 351.359C275.888 351.74 275.805 352.182 275.814 352.685C275.823 353.188 275.918 353.634 276.1 354.024C276.291 354.405 276.551 354.709 276.88 354.934C277.209 355.151 277.582 355.259 277.998 355.259ZM293.562 355.259C294.03 355.259 294.433 355.116 294.771 354.83C295.117 354.544 295.347 354.158 295.46 353.673H296.409C296.261 354.436 295.932 355.042 295.421 355.493C294.909 355.944 294.29 356.169 293.562 356.169C292.929 356.169 292.379 356.03 291.911 355.753C291.443 355.467 291.079 355.064 290.819 354.544C290.567 354.015 290.442 353.396 290.442 352.685C290.442 351.966 290.563 351.346 290.806 350.826C291.057 350.306 291.408 349.907 291.859 349.63C292.318 349.344 292.86 349.201 293.484 349.201C294.255 349.201 294.905 349.439 295.434 349.916C295.962 350.384 296.287 351.021 296.409 351.827H295.46C295.373 351.298 295.148 350.882 294.784 350.579C294.428 350.267 293.995 350.111 293.484 350.111C292.834 350.111 292.322 350.341 291.95 350.8C291.586 351.259 291.408 351.888 291.417 352.685C291.434 353.474 291.633 354.102 292.015 354.57C292.405 355.029 292.92 355.259 293.562 355.259ZM300.967 351.567C301.374 351.567 301.747 351.628 302.085 351.749C302.431 351.862 302.67 352.009 302.8 352.191L302.865 352.282V350.41H299.03V349.5H303.84V356H302.865V355.389L302.8 355.454C302.592 355.662 302.327 355.835 302.007 355.974C301.686 356.113 301.361 356.182 301.032 356.182C300.503 356.182 300.035 356.082 299.628 355.883C299.229 355.684 298.913 355.406 298.679 355.051C298.453 354.696 298.341 354.288 298.341 353.829C298.341 353.387 298.449 352.997 298.666 352.659C298.891 352.312 299.203 352.044 299.602 351.853C300 351.662 300.455 351.567 300.967 351.567ZM299.316 353.829C299.316 354.254 299.476 354.6 299.797 354.869C300.117 355.138 300.529 355.272 301.032 355.272C301.569 355.272 302.007 355.138 302.345 354.869C302.691 354.6 302.865 354.254 302.865 353.829C302.865 353.43 302.687 353.105 302.332 352.854C301.985 352.603 301.53 352.477 300.967 352.477C300.481 352.477 300.083 352.603 299.771 352.854C299.467 353.105 299.316 353.43 299.316 353.829ZM312.441 356H305.902V355.09H308.567V347.459H306.539V346.549H309.542V355.09H312.441V356ZM320.236 356H313.697V355.09H316.362V347.459H314.334V346.549H317.337V355.09H320.236V356ZM324.936 356.182C324.026 356.182 323.298 355.952 322.752 355.493C322.206 355.034 321.925 354.414 321.907 353.634H322.882C322.9 354.137 323.09 354.54 323.454 354.843C323.818 355.138 324.304 355.281 324.91 355.272C325.352 355.263 325.712 355.168 325.989 354.986C326.275 354.804 326.414 354.574 326.405 354.297C326.397 354.046 326.284 353.829 326.067 353.647C325.851 353.465 325.487 353.287 324.975 353.114L324.156 352.828C323.489 352.594 323.008 352.343 322.713 352.074C322.427 351.797 322.276 351.459 322.258 351.06C322.25 350.696 322.341 350.375 322.531 350.098C322.722 349.821 322.991 349.604 323.337 349.448C323.693 349.283 324.104 349.201 324.572 349.201C325.378 349.192 326.024 349.396 326.509 349.812C326.995 350.219 327.246 350.783 327.263 351.502L326.288 351.515C326.228 351.082 326.046 350.739 325.742 350.488C325.439 350.237 325.058 350.111 324.598 350.111C324.182 350.111 323.849 350.202 323.597 350.384C323.346 350.566 323.225 350.796 323.233 351.073C323.242 351.264 323.337 351.433 323.519 351.58C323.71 351.727 324.026 351.879 324.468 352.035L325.3 352.321C326.02 352.564 326.535 352.828 326.847 353.114C327.159 353.391 327.32 353.738 327.328 354.154C327.346 354.553 327.255 354.904 327.055 355.207C326.856 355.51 326.574 355.749 326.21 355.922C325.846 356.095 325.422 356.182 324.936 356.182ZM338.914 356H338.004L336.782 349.5H337.757L338.55 354.375L339.746 349.5H340.734L341.943 354.414L342.736 349.5H343.711L342.476 356H341.566L340.24 350.644L338.914 356ZM347.203 348.122V346.549H348.776V348.122H347.203ZM348.776 355.09H351.675V356H344.876V355.09H347.801V350.111H345.513V349.201H348.776V355.09ZM357.351 355.09H358.417V356H357.169C356.355 356 355.731 355.844 355.297 355.532C354.864 355.211 354.647 354.622 354.647 353.764V350.657H352.528V349.747H354.647V347.719H355.622V349.747H358.391V350.657H355.622V353.634C355.622 354.024 355.67 354.323 355.765 354.531C355.861 354.739 356.034 354.886 356.285 354.973C356.537 355.051 356.892 355.09 357.351 355.09ZM362.039 349.5H366.485L366.498 356H365.523L365.51 350.41H362.039V356H361.064V347.459H360.336V346.549H362.039V349.5ZM379.306 355.259C379.774 355.259 380.177 355.116 380.515 354.83C380.862 354.544 381.091 354.158 381.204 353.673H382.153C382.006 354.436 381.676 355.042 381.165 355.493C380.654 355.944 380.034 356.169 379.306 356.169C378.673 356.169 378.123 356.03 377.655 355.753C377.187 355.467 376.823 355.064 376.563 354.544C376.312 354.015 376.186 353.396 376.186 352.685C376.186 351.966 376.307 351.346 376.55 350.826C376.801 350.306 377.152 349.907 377.603 349.63C378.062 349.344 378.604 349.201 379.228 349.201C379.999 349.201 380.649 349.439 381.178 349.916C381.707 350.384 382.032 351.021 382.153 351.827H381.204C381.117 351.298 380.892 350.882 380.528 350.579C380.173 350.267 379.739 350.111 379.228 350.111C378.578 350.111 378.067 350.341 377.694 350.8C377.33 351.259 377.152 351.888 377.161 352.685C377.178 353.474 377.378 354.102 377.759 354.57C378.149 355.029 378.665 355.259 379.306 355.259ZM385.112 356V349.5H390.273V350.475H386.087V356H385.112ZM394.688 358.366H392.153V357.456H393.934L394.493 356L391.841 349.5H392.92L395.013 354.622L396.95 349.5H398.029L394.688 358.366ZM402.886 356.182C401.976 356.182 401.248 355.952 400.702 355.493C400.156 355.034 399.874 354.414 399.857 353.634H400.832C400.849 354.137 401.04 354.54 401.404 354.843C401.768 355.138 402.253 355.281 402.86 355.272C403.302 355.263 403.661 355.168 403.939 354.986C404.225 354.804 404.363 354.574 404.355 354.297C404.346 354.046 404.233 353.829 404.017 353.647C403.8 353.465 403.436 353.287 402.925 353.114L402.106 352.828C401.438 352.594 400.957 352.343 400.663 352.074C400.377 351.797 400.225 351.459 400.208 351.06C400.199 350.696 400.29 350.375 400.481 350.098C400.671 349.821 400.94 349.604 401.287 349.448C401.642 349.283 402.054 349.201 402.522 349.201C403.328 349.192 403.973 349.396 404.459 349.812C404.944 350.219 405.195 350.783 405.213 351.502L404.238 351.515C404.177 351.082 403.995 350.739 403.692 350.488C403.388 350.237 403.007 350.111 402.548 350.111C402.132 350.111 401.798 350.202 401.547 350.384C401.295 350.566 401.174 350.796 401.183 351.073C401.191 351.264 401.287 351.433 401.469 351.58C401.659 351.727 401.976 351.879 402.418 352.035L403.25 352.321C403.969 352.564 404.485 352.828 404.797 353.114C405.109 353.391 405.269 353.738 405.278 354.154C405.295 354.553 405.204 354.904 405.005 355.207C404.805 355.51 404.524 355.749 404.16 355.922C403.796 356.095 403.371 356.182 402.886 356.182ZM411.916 355.09H412.982V356H411.734C410.919 356 410.295 355.844 409.862 355.532C409.428 355.211 409.212 354.622 409.212 353.764V350.657H407.093V349.747H409.212V347.719H410.187V349.747H412.956V350.657H410.187V353.634C410.187 354.024 410.234 354.323 410.33 354.531C410.425 354.739 410.598 354.886 410.85 354.973C411.101 355.051 411.456 355.09 411.916 355.09ZM417.891 351.567C418.298 351.567 418.671 351.628 419.009 351.749C419.355 351.862 419.594 352.009 419.724 352.191L419.789 352.282V350.41H415.954V349.5H420.764V356H419.789V355.389L419.724 355.454C419.516 355.662 419.251 355.835 418.931 355.974C418.61 356.113 418.285 356.182 417.956 356.182C417.427 356.182 416.959 356.082 416.552 355.883C416.153 355.684 415.837 355.406 415.603 355.051C415.377 354.696 415.265 354.288 415.265 353.829C415.265 353.387 415.373 352.997 415.59 352.659C415.815 352.312 416.127 352.044 416.526 351.853C416.924 351.662 417.379 351.567 417.891 351.567ZM416.24 353.829C416.24 354.254 416.4 354.6 416.721 354.869C417.041 355.138 417.453 355.272 417.956 355.272C418.493 355.272 418.931 355.138 419.269 354.869C419.615 354.6 419.789 354.254 419.789 353.829C419.789 353.43 419.611 353.105 419.256 352.854C418.909 352.603 418.454 352.477 417.891 352.477C417.405 352.477 417.007 352.603 416.695 352.854C416.391 353.105 416.24 353.43 416.24 353.829ZM429.364 356H422.825V355.09H425.49V347.459H423.462V346.549H426.465V355.09H429.364V356ZM431.647 352.815V351.97H435.872V352.815H431.647ZM441.665 355.259C442.133 355.259 442.536 355.116 442.874 354.83C443.221 354.544 443.451 354.158 443.563 353.673H444.512C444.365 354.436 444.036 355.042 443.524 355.493C443.013 355.944 442.393 356.169 441.665 356.169C441.033 356.169 440.482 356.03 440.014 355.753C439.546 355.467 439.182 355.064 438.922 354.544C438.671 354.015 438.545 353.396 438.545 352.685C438.545 351.966 438.667 351.346 438.909 350.826C439.161 350.306 439.512 349.907 439.962 349.63C440.422 349.344 440.963 349.201 441.587 349.201C442.359 349.201 443.009 349.439 443.537 349.916C444.066 350.384 444.391 351.021 444.512 351.827H443.563C443.477 351.298 443.251 350.882 442.887 350.579C442.532 350.267 442.099 350.111 441.587 350.111C440.937 350.111 440.426 350.341 440.053 350.8C439.689 351.259 439.512 351.888 439.52 352.685C439.538 353.474 439.737 354.102 440.118 354.57C440.508 355.029 441.024 355.259 441.665 355.259ZM452.749 356H446.21V355.09H448.875V347.459H446.847V346.549H449.85V355.09H452.749V356ZM454.044 352.685C454.044 351.966 454.165 351.346 454.408 350.826C454.659 350.306 455.01 349.907 455.461 349.63C455.92 349.344 456.458 349.201 457.073 349.201C457.662 349.201 458.174 349.344 458.607 349.63C459.04 349.916 459.374 350.328 459.608 350.865C459.842 351.394 459.959 352.022 459.959 352.75V352.854H455.006C455.049 353.591 455.266 354.176 455.656 354.609C456.046 355.042 456.549 355.259 457.164 355.259C457.719 355.259 458.156 355.12 458.477 354.843C458.806 354.566 458.997 354.176 459.049 353.673H459.959C459.872 354.47 459.586 355.086 459.101 355.519C458.624 355.952 457.979 356.169 457.164 356.169C456.531 356.169 455.981 356.03 455.513 355.753C455.045 355.467 454.681 355.064 454.421 354.544C454.17 354.015 454.044 353.396 454.044 352.685ZM457.073 350.111C456.518 350.094 456.063 350.25 455.708 350.579C455.361 350.908 455.166 351.363 455.123 351.944H458.945C458.91 351.398 458.724 350.96 458.386 350.631C458.048 350.302 457.61 350.128 457.073 350.111ZM464.66 351.567C465.067 351.567 465.44 351.628 465.778 351.749C466.125 351.862 466.363 352.009 466.493 352.191L466.558 352.282V350.41H462.723V349.5H467.533V356H466.558V355.389L466.493 355.454C466.285 355.662 466.021 355.835 465.7 355.974C465.379 356.113 465.054 356.182 464.725 356.182C464.196 356.182 463.728 356.082 463.321 355.883C462.922 355.684 462.606 355.406 462.372 355.051C462.147 354.696 462.034 354.288 462.034 353.829C462.034 353.387 462.142 352.997 462.359 352.659C462.584 352.312 462.896 352.044 463.295 351.853C463.694 351.662 464.149 351.567 464.66 351.567ZM463.009 353.829C463.009 354.254 463.169 354.6 463.49 354.869C463.811 355.138 464.222 355.272 464.725 355.272C465.262 355.272 465.7 355.138 466.038 354.869C466.385 354.6 466.558 354.254 466.558 353.829C466.558 353.43 466.38 353.105 466.025 352.854C465.678 352.603 465.223 352.477 464.66 352.477C464.175 352.477 463.776 352.603 463.464 352.854C463.161 353.105 463.009 353.43 463.009 353.829ZM470.856 356V349.5H476.017V350.475H471.831V356H470.856ZM488.045 351.567C488.452 351.567 488.825 351.628 489.163 351.749C489.51 351.862 489.748 352.009 489.878 352.191L489.943 352.282V350.41H486.108V349.5H490.918V356H489.943V355.389L489.878 355.454C489.67 355.662 489.406 355.835 489.085 355.974C488.764 356.113 488.439 356.182 488.11 356.182C487.581 356.182 487.113 356.082 486.706 355.883C486.307 355.684 485.991 355.406 485.757 355.051C485.532 354.696 485.419 354.288 485.419 353.829C485.419 353.387 485.527 352.997 485.744 352.659C485.969 352.312 486.281 352.044 486.68 351.853C487.079 351.662 487.534 351.567 488.045 351.567ZM486.394 353.829C486.394 354.254 486.554 354.6 486.875 354.869C487.196 355.138 487.607 355.272 488.11 355.272C488.647 355.272 489.085 355.138 489.423 354.869C489.77 354.6 489.943 354.254 489.943 353.829C489.943 353.43 489.765 353.105 489.41 352.854C489.063 352.603 488.608 352.477 488.045 352.477C487.56 352.477 487.161 352.603 486.849 352.854C486.546 353.105 486.394 353.43 486.394 353.829ZM497.972 355.09V349.5H498.947V356H495.97C495.155 356 494.531 355.827 494.098 355.48C493.664 355.125 493.448 354.553 493.448 353.764V349.5H494.423V353.634C494.423 353.981 494.47 354.262 494.566 354.479C494.661 354.687 494.83 354.843 495.073 354.947C495.324 355.042 495.684 355.09 496.152 355.09H497.972ZM506.755 356H505.78V355.207C505.537 355.51 505.234 355.749 504.87 355.922C504.506 356.087 504.094 356.169 503.635 356.169C502.716 356.169 501.984 355.866 501.438 355.259C500.9 354.652 500.632 353.829 500.632 352.789C500.632 352.052 500.753 351.415 500.996 350.878C501.238 350.341 501.585 349.929 502.036 349.643C502.486 349.348 503.019 349.201 503.635 349.201C504.553 349.201 505.268 349.543 505.78 350.228V347.459H505.052V346.549H506.755V356ZM501.607 352.789C501.607 353.552 501.789 354.158 502.153 354.609C502.525 355.06 503.028 355.285 503.661 355.285C504.311 355.285 504.826 355.06 505.208 354.609C505.589 354.158 505.78 353.552 505.78 352.789C505.78 351.957 505.589 351.298 505.208 350.813C504.826 350.328 504.311 350.085 503.661 350.085C503.028 350.085 502.525 350.328 502.153 350.813C501.789 351.298 501.607 351.957 501.607 352.789ZM510.897 348.122V346.549H512.47V348.122H510.897ZM512.47 355.09H515.369V356H508.57V355.09H511.495V350.111H509.207V349.201H512.47V355.09ZM516.482 352.685C516.482 352 516.612 351.398 516.872 350.878C517.14 350.358 517.509 349.951 517.977 349.656C518.445 349.353 518.982 349.201 519.589 349.201C520.187 349.201 520.715 349.353 521.175 349.656C521.634 349.951 521.994 350.358 522.254 350.878C522.514 351.398 522.644 352 522.644 352.685C522.644 353.361 522.514 353.963 522.254 354.492C522.002 355.012 521.651 355.424 521.201 355.727C520.75 356.022 520.23 356.169 519.641 356.169C519.017 356.169 518.466 356.022 517.99 355.727C517.522 355.424 517.153 355.012 516.885 354.492C516.616 353.963 516.482 353.361 516.482 352.685ZM519.641 355.259C520.039 355.259 520.39 355.151 520.694 354.934C520.997 354.709 521.235 354.405 521.409 354.024C521.582 353.634 521.669 353.188 521.669 352.685C521.669 352.182 521.578 351.74 521.396 351.359C521.222 350.969 520.98 350.666 520.668 350.449C520.356 350.224 519.996 350.111 519.589 350.111C519.164 350.111 518.787 350.224 518.458 350.449C518.137 350.666 517.886 350.969 517.704 351.359C517.53 351.74 517.448 352.182 517.457 352.685C517.465 353.188 517.561 353.634 517.743 354.024C517.933 354.405 518.193 354.709 518.523 354.934C518.852 355.151 519.225 355.259 519.641 355.259ZM524.068 356V354.557H525.511V356H524.068ZM195.551 375L194.758 372.543H190.988L190.195 375H189.22L192.249 365.77H193.497L196.526 375H195.551ZM192.873 366.667L191.274 371.633H194.472L192.873 366.667ZM200.759 374.259C201.227 374.259 201.63 374.116 201.968 373.83C202.315 373.544 202.544 373.158 202.657 372.673H203.606C203.459 373.436 203.129 374.042 202.618 374.493C202.107 374.944 201.487 375.169 200.759 375.169C200.126 375.169 199.576 375.03 199.108 374.753C198.64 374.467 198.276 374.064 198.016 373.544C197.765 373.015 197.639 372.396 197.639 371.685C197.639 370.966 197.76 370.346 198.003 369.826C198.254 369.306 198.605 368.907 199.056 368.63C199.515 368.344 200.057 368.201 200.681 368.201C201.452 368.201 202.102 368.439 202.631 368.916C203.16 369.384 203.485 370.021 203.606 370.827H202.657C202.57 370.298 202.345 369.882 201.981 369.579C201.626 369.267 201.192 369.111 200.681 369.111C200.031 369.111 199.52 369.341 199.147 369.8C198.783 370.259 198.605 370.888 198.614 371.685C198.631 372.474 198.831 373.102 199.212 373.57C199.602 374.029 200.118 374.259 200.759 374.259ZM208.554 374.259C209.022 374.259 209.425 374.116 209.763 373.83C210.11 373.544 210.339 373.158 210.452 372.673H211.401C211.254 373.436 210.924 374.042 210.413 374.493C209.902 374.944 209.282 375.169 208.554 375.169C207.921 375.169 207.371 375.03 206.903 374.753C206.435 374.467 206.071 374.064 205.811 373.544C205.56 373.015 205.434 372.396 205.434 371.685C205.434 370.966 205.555 370.346 205.798 369.826C206.049 369.306 206.4 368.907 206.851 368.63C207.31 368.344 207.852 368.201 208.476 368.201C209.247 368.201 209.897 368.439 210.426 368.916C210.955 369.384 211.28 370.021 211.401 370.827H210.452C210.365 370.298 210.14 369.882 209.776 369.579C209.421 369.267 208.987 369.111 208.476 369.111C207.826 369.111 207.315 369.341 206.942 369.8C206.578 370.259 206.4 370.888 206.409 371.685C206.426 372.474 206.626 373.102 207.007 373.57C207.397 374.029 207.913 374.259 208.554 374.259ZM213.138 371.685C213.138 370.966 213.259 370.346 213.502 369.826C213.753 369.306 214.104 368.907 214.555 368.63C215.014 368.344 215.552 368.201 216.167 368.201C216.756 368.201 217.268 368.344 217.701 368.63C218.134 368.916 218.468 369.328 218.702 369.865C218.936 370.394 219.053 371.022 219.053 371.75V371.854H214.1C214.143 372.591 214.36 373.176 214.75 373.609C215.14 374.042 215.643 374.259 216.258 374.259C216.813 374.259 217.25 374.12 217.571 373.843C217.9 373.566 218.091 373.176 218.143 372.673H219.053C218.966 373.47 218.68 374.086 218.195 374.519C217.718 374.952 217.073 375.169 216.258 375.169C215.625 375.169 215.075 375.03 214.607 374.753C214.139 374.467 213.775 374.064 213.515 373.544C213.264 373.015 213.138 372.396 213.138 371.685ZM216.167 369.111C215.612 369.094 215.157 369.25 214.802 369.579C214.455 369.908 214.26 370.363 214.217 370.944H218.039C218.004 370.398 217.818 369.96 217.48 369.631C217.142 369.302 216.704 369.128 216.167 369.111ZM224.339 375.182C223.429 375.182 222.701 374.952 222.155 374.493C221.609 374.034 221.327 373.414 221.31 372.634H222.285C222.302 373.137 222.493 373.54 222.857 373.843C223.221 374.138 223.706 374.281 224.313 374.272C224.755 374.263 225.114 374.168 225.392 373.986C225.678 373.804 225.816 373.574 225.808 373.297C225.799 373.046 225.686 372.829 225.47 372.647C225.253 372.465 224.889 372.287 224.378 372.114L223.559 371.828C222.891 371.594 222.41 371.343 222.116 371.074C221.83 370.797 221.678 370.459 221.661 370.06C221.652 369.696 221.743 369.375 221.934 369.098C222.124 368.821 222.393 368.604 222.74 368.448C223.095 368.283 223.507 368.201 223.975 368.201C224.781 368.192 225.426 368.396 225.912 368.812C226.397 369.219 226.648 369.783 226.666 370.502L225.691 370.515C225.63 370.082 225.448 369.739 225.145 369.488C224.841 369.237 224.46 369.111 224.001 369.111C223.585 369.111 223.251 369.202 223 369.384C222.748 369.566 222.627 369.796 222.636 370.073C222.644 370.264 222.74 370.433 222.922 370.58C223.112 370.727 223.429 370.879 223.871 371.035L224.703 371.321C225.422 371.564 225.938 371.828 226.25 372.114C226.562 372.391 226.722 372.738 226.731 373.154C226.748 373.553 226.657 373.904 226.458 374.207C226.258 374.51 225.977 374.749 225.613 374.922C225.249 375.095 224.824 375.182 224.339 375.182ZM232.134 375.182C231.224 375.182 230.496 374.952 229.95 374.493C229.404 374.034 229.122 373.414 229.105 372.634H230.08C230.097 373.137 230.288 373.54 230.652 373.843C231.016 374.138 231.501 374.281 232.108 374.272C232.55 374.263 232.909 374.168 233.187 373.986C233.473 373.804 233.611 373.574 233.603 373.297C233.594 373.046 233.481 372.829 233.265 372.647C233.048 372.465 232.684 372.287 232.173 372.114L231.354 371.828C230.686 371.594 230.205 371.343 229.911 371.074C229.625 370.797 229.473 370.459 229.456 370.06C229.447 369.696 229.538 369.375 229.729 369.098C229.919 368.821 230.188 368.604 230.535 368.448C230.89 368.283 231.302 368.201 231.77 368.201C232.576 368.192 233.221 368.396 233.707 368.812C234.192 369.219 234.443 369.783 234.461 370.502L233.486 370.515C233.425 370.082 233.243 369.739 232.94 369.488C232.636 369.237 232.255 369.111 231.796 369.111C231.38 369.111 231.046 369.202 230.795 369.384C230.543 369.566 230.422 369.796 230.431 370.073C230.439 370.264 230.535 370.433 230.717 370.58C230.907 370.727 231.224 370.879 231.666 371.035L232.498 371.321C233.217 371.564 233.733 371.828 234.045 372.114C234.357 372.391 234.517 372.738 234.526 373.154C234.543 373.553 234.452 373.904 234.253 374.207C234.053 374.51 233.772 374.749 233.408 374.922C233.044 375.095 232.619 375.182 232.134 375.182ZM239.136 376.482L236.263 376.469V375.624L238.317 375.637V374.948H237.459V373.518H239.136V376.482ZM252.598 375V368.5H257.759V369.475H253.573V375H252.598ZM259.171 371.685C259.171 370.966 259.292 370.346 259.535 369.826C259.786 369.306 260.137 368.907 260.588 368.63C261.047 368.344 261.585 368.201 262.2 368.201C262.789 368.201 263.301 368.344 263.734 368.63C264.167 368.916 264.501 369.328 264.735 369.865C264.969 370.394 265.086 371.022 265.086 371.75V371.854H260.133C260.176 372.591 260.393 373.176 260.783 373.609C261.173 374.042 261.676 374.259 262.291 374.259C262.846 374.259 263.283 374.12 263.604 373.843C263.933 373.566 264.124 373.176 264.176 372.673H265.086C264.999 373.47 264.713 374.086 264.228 374.519C263.751 374.952 263.106 375.169 262.291 375.169C261.658 375.169 261.108 375.03 260.64 374.753C260.172 374.467 259.808 374.064 259.548 373.544C259.297 373.015 259.171 372.396 259.171 371.685ZM262.2 369.111C261.645 369.094 261.19 369.25 260.835 369.579C260.488 369.908 260.293 370.363 260.25 370.944H264.072C264.037 370.398 263.851 369.96 263.513 369.631C263.175 369.302 262.737 369.128 262.2 369.111ZM267.239 368.5H268.214V369.163C268.465 368.86 268.773 368.626 269.137 368.461C269.501 368.288 269.908 368.201 270.359 368.201C271.286 368.201 272.019 368.504 272.556 369.111C273.093 369.718 273.362 370.541 273.362 371.581C273.362 372.318 273.241 372.955 272.998 373.492C272.755 374.029 272.409 374.445 271.958 374.74C271.507 375.026 270.974 375.169 270.359 375.169C269.44 375.169 268.725 374.827 268.214 374.142V377.951H267.239V368.5ZM272.387 371.581C272.387 370.81 272.201 370.203 271.828 369.761C271.464 369.31 270.966 369.085 270.333 369.085C269.683 369.085 269.167 369.31 268.786 369.761C268.405 370.203 268.214 370.81 268.214 371.581C268.214 372.413 268.405 373.072 268.786 373.557C269.167 374.042 269.683 374.285 270.333 374.285C270.966 374.285 271.464 374.042 271.828 373.557C272.201 373.072 272.387 372.413 272.387 371.581ZM281.261 375H274.722V374.09H277.387V366.459H275.359V365.549H278.362V374.09H281.261V375ZM285.377 370.567C285.784 370.567 286.157 370.628 286.495 370.749C286.842 370.862 287.08 371.009 287.21 371.191L287.275 371.282V369.41H283.44V368.5H288.25V375H287.275V374.389L287.21 374.454C287.002 374.662 286.738 374.835 286.417 374.974C286.096 375.113 285.771 375.182 285.442 375.182C284.913 375.182 284.445 375.082 284.038 374.883C283.639 374.684 283.323 374.406 283.089 374.051C282.864 373.696 282.751 373.288 282.751 372.829C282.751 372.387 282.859 371.997 283.076 371.659C283.301 371.312 283.613 371.044 284.012 370.853C284.411 370.662 284.866 370.567 285.377 370.567ZM283.726 372.829C283.726 373.254 283.886 373.6 284.207 373.869C284.528 374.138 284.939 374.272 285.442 374.272C285.979 374.272 286.417 374.138 286.755 373.869C287.102 373.6 287.275 373.254 287.275 372.829C287.275 372.43 287.097 372.105 286.742 371.854C286.395 371.603 285.94 371.477 285.377 371.477C284.892 371.477 284.493 371.603 284.181 371.854C283.878 372.105 283.726 372.43 283.726 372.829ZM293.354 377.366H290.819V376.456H292.6L293.159 375L290.507 368.5H291.586L293.679 373.622L295.616 368.5H296.695L293.354 377.366ZM300.759 376.482L297.886 376.469V375.624L299.94 375.637V374.948H299.082V373.518H300.759V376.482ZM315.82 370.567C316.228 370.567 316.6 370.628 316.938 370.749C317.285 370.862 317.523 371.009 317.653 371.191L317.718 371.282V369.41H313.883V368.5H318.693V375H317.718V374.389L317.653 374.454C317.445 374.662 317.181 374.835 316.86 374.974C316.54 375.113 316.215 375.182 315.885 375.182C315.357 375.182 314.889 375.082 314.481 374.883C314.083 374.684 313.766 374.406 313.532 374.051C313.307 373.696 313.194 373.288 313.194 372.829C313.194 372.387 313.303 371.997 313.519 371.659C313.745 371.312 314.057 371.044 314.455 370.853C314.854 370.662 315.309 370.567 315.82 370.567ZM314.169 372.829C314.169 373.254 314.33 373.6 314.65 373.869C314.971 374.138 315.383 374.272 315.885 374.272C316.423 374.272 316.86 374.138 317.198 373.869C317.545 373.6 317.718 373.254 317.718 372.829C317.718 372.43 317.541 372.105 317.185 371.854C316.839 371.603 316.384 371.477 315.82 371.477C315.335 371.477 314.936 371.603 314.624 371.854C314.321 372.105 314.169 372.43 314.169 372.829ZM321.236 375V368.5H326.735L326.748 375H325.773L325.76 369.41H322.211V375H321.236ZM334.53 375H333.555V374.207C333.312 374.51 333.009 374.749 332.645 374.922C332.281 375.087 331.869 375.169 331.41 375.169C330.491 375.169 329.759 374.866 329.213 374.259C328.676 373.652 328.407 372.829 328.407 371.789C328.407 371.052 328.528 370.415 328.771 369.878C329.014 369.341 329.36 368.929 329.811 368.643C330.262 368.348 330.795 368.201 331.41 368.201C332.329 368.201 333.044 368.543 333.555 369.228V366.459H332.827V365.549H334.53V375ZM329.382 371.789C329.382 372.552 329.564 373.158 329.928 373.609C330.301 374.06 330.803 374.285 331.436 374.285C332.086 374.285 332.602 374.06 332.983 373.609C333.364 373.158 333.555 372.552 333.555 371.789C333.555 370.957 333.364 370.298 332.983 369.813C332.602 369.328 332.086 369.085 331.436 369.085C330.803 369.085 330.301 369.328 329.928 369.813C329.564 370.298 329.382 370.957 329.382 371.789ZM347.585 375.182C346.675 375.182 345.947 374.952 345.401 374.493C344.855 374.034 344.573 373.414 344.556 372.634H345.531C345.548 373.137 345.739 373.54 346.103 373.843C346.467 374.138 346.952 374.281 347.559 374.272C348.001 374.263 348.361 374.168 348.638 373.986C348.924 373.804 349.063 373.574 349.054 373.297C349.045 373.046 348.933 372.829 348.716 372.647C348.499 372.465 348.135 372.287 347.624 372.114L346.805 371.828C346.138 371.594 345.657 371.343 345.362 371.074C345.076 370.797 344.924 370.459 344.907 370.06C344.898 369.696 344.989 369.375 345.18 369.098C345.371 368.821 345.639 368.604 345.986 368.448C346.341 368.283 346.753 368.201 347.221 368.201C348.027 368.192 348.673 368.396 349.158 368.812C349.643 369.219 349.895 369.783 349.912 370.502L348.937 370.515C348.876 370.082 348.694 369.739 348.391 369.488C348.088 369.237 347.706 369.111 347.247 369.111C346.831 369.111 346.497 369.202 346.246 369.384C345.995 369.566 345.873 369.796 345.882 370.073C345.891 370.264 345.986 370.433 346.168 370.58C346.359 370.727 346.675 370.879 347.117 371.035L347.949 371.321C348.668 371.564 349.184 371.828 349.496 372.114C349.808 372.391 349.968 372.738 349.977 373.154C349.994 373.553 349.903 373.904 349.704 374.207C349.505 374.51 349.223 374.749 348.859 374.922C348.495 375.095 348.07 375.182 347.585 375.182ZM353.508 368.5H357.954L357.967 375H356.992L356.979 369.41H353.508V375H352.533V366.459H351.805V365.549H353.508V368.5ZM362.59 370.567C362.997 370.567 363.37 370.628 363.708 370.749C364.054 370.862 364.293 371.009 364.423 371.191L364.488 371.282V369.41H360.653V368.5H365.463V375H364.488V374.389L364.423 374.454C364.215 374.662 363.95 374.835 363.63 374.974C363.309 375.113 362.984 375.182 362.655 375.182C362.126 375.182 361.658 375.082 361.251 374.883C360.852 374.684 360.536 374.406 360.302 374.051C360.076 373.696 359.964 373.288 359.964 372.829C359.964 372.387 360.072 371.997 360.289 371.659C360.514 371.312 360.826 371.044 361.225 370.853C361.623 370.662 362.078 370.567 362.59 370.567ZM360.939 372.829C360.939 373.254 361.099 373.6 361.42 373.869C361.74 374.138 362.152 374.272 362.655 374.272C363.192 374.272 363.63 374.138 363.968 373.869C364.314 373.6 364.488 373.254 364.488 372.829C364.488 372.43 364.31 372.105 363.955 371.854C363.608 371.603 363.153 371.477 362.59 371.477C362.104 371.477 361.706 371.603 361.394 371.854C361.09 372.105 360.939 372.43 360.939 372.829ZM368.786 375V368.5H373.947V369.475H369.761V375H368.786ZM375.359 371.685C375.359 370.966 375.48 370.346 375.723 369.826C375.974 369.306 376.325 368.907 376.776 368.63C377.235 368.344 377.772 368.201 378.388 368.201C378.977 368.201 379.488 368.344 379.922 368.63C380.355 368.916 380.689 369.328 380.923 369.865C381.157 370.394 381.274 371.022 381.274 371.75V371.854H376.321C376.364 372.591 376.581 373.176 376.971 373.609C377.361 374.042 377.863 374.259 378.479 374.259C379.033 374.259 379.471 374.12 379.792 373.843C380.121 373.566 380.312 373.176 380.364 372.673H381.274C381.187 373.47 380.901 374.086 380.416 374.519C379.939 374.952 379.293 375.169 378.479 375.169C377.846 375.169 377.296 375.03 376.828 374.753C376.36 374.467 375.996 374.064 375.736 373.544C375.484 373.015 375.359 372.396 375.359 371.685ZM378.388 369.111C377.833 369.094 377.378 369.25 377.023 369.579C376.676 369.908 376.481 370.363 376.438 370.944H380.26C380.225 370.398 380.039 369.96 379.701 369.631C379.363 369.302 378.925 369.128 378.388 369.111ZM392.17 375V368.5H397.331V369.475H393.145V375H392.17ZM398.743 371.685C398.743 370.966 398.865 370.346 399.107 369.826C399.359 369.306 399.71 368.907 400.16 368.63C400.62 368.344 401.157 368.201 401.772 368.201C402.362 368.201 402.873 368.344 403.306 368.63C403.74 368.916 404.073 369.328 404.307 369.865C404.541 370.394 404.658 371.022 404.658 371.75V371.854H399.705C399.749 372.591 399.965 373.176 400.355 373.609C400.745 374.042 401.248 374.259 401.863 374.259C402.418 374.259 402.856 374.12 403.176 373.843C403.506 373.566 403.696 373.176 403.748 372.673H404.658C404.572 373.47 404.286 374.086 403.8 374.519C403.324 374.952 402.678 375.169 401.863 375.169C401.231 375.169 400.68 375.03 400.212 374.753C399.744 374.467 399.38 374.064 399.12 373.544C398.869 373.015 398.743 372.396 398.743 371.685ZM401.772 369.111C401.218 369.094 400.763 369.25 400.407 369.579C400.061 369.908 399.866 370.363 399.822 370.944H403.644C403.61 370.398 403.423 369.96 403.085 369.631C402.747 369.302 402.31 369.128 401.772 369.111ZM409.749 374.259C410.217 374.259 410.62 374.116 410.958 373.83C411.305 373.544 411.535 373.158 411.647 372.673H412.596C412.449 373.436 412.12 374.042 411.608 374.493C411.097 374.944 410.477 375.169 409.749 375.169C409.117 375.169 408.566 375.03 408.098 374.753C407.63 374.467 407.266 374.064 407.006 373.544C406.755 373.015 406.629 372.396 406.629 371.685C406.629 370.966 406.751 370.346 406.993 369.826C407.245 369.306 407.596 368.907 408.046 368.63C408.506 368.344 409.047 368.201 409.671 368.201C410.443 368.201 411.093 368.439 411.621 368.916C412.15 369.384 412.475 370.021 412.596 370.827H411.647C411.561 370.298 411.335 369.882 410.971 369.579C410.616 369.267 410.183 369.111 409.671 369.111C409.021 369.111 408.51 369.341 408.137 369.8C407.773 370.259 407.596 370.888 407.604 371.685C407.622 372.474 407.821 373.102 408.202 373.57C408.592 374.029 409.108 374.259 409.749 374.259ZM414.411 371.685C414.411 371 414.541 370.398 414.801 369.878C415.07 369.358 415.438 368.951 415.906 368.656C416.374 368.353 416.912 368.201 417.518 368.201C418.116 368.201 418.645 368.353 419.104 368.656C419.564 368.951 419.923 369.358 420.183 369.878C420.443 370.398 420.573 371 420.573 371.685C420.573 372.361 420.443 372.963 420.183 373.492C419.932 374.012 419.581 374.424 419.13 374.727C418.68 375.022 418.16 375.169 417.57 375.169C416.946 375.169 416.396 375.022 415.919 374.727C415.451 374.424 415.083 374.012 414.814 373.492C414.546 372.963 414.411 372.361 414.411 371.685ZM417.57 374.259C417.969 374.259 418.32 374.151 418.623 373.934C418.927 373.709 419.165 373.405 419.338 373.024C419.512 372.634 419.598 372.188 419.598 371.685C419.598 371.182 419.507 370.74 419.325 370.359C419.152 369.969 418.909 369.666 418.597 369.449C418.285 369.224 417.926 369.111 417.518 369.111C417.094 369.111 416.717 369.224 416.387 369.449C416.067 369.666 415.815 369.969 415.633 370.359C415.46 370.74 415.378 371.182 415.386 371.685C415.395 372.188 415.49 372.634 415.672 373.024C415.863 373.405 416.123 373.709 416.452 373.934C416.782 374.151 417.154 374.259 417.57 374.259ZM423.35 375V368.5H428.511V369.475H424.325V375H423.35ZM435.864 375H434.889V374.207C434.646 374.51 434.343 374.749 433.979 374.922C433.615 375.087 433.203 375.169 432.744 375.169C431.825 375.169 431.093 374.866 430.547 374.259C430.01 373.652 429.741 372.829 429.741 371.789C429.741 371.052 429.862 370.415 430.105 369.878C430.348 369.341 430.694 368.929 431.145 368.643C431.596 368.348 432.129 368.201 432.744 368.201C433.663 368.201 434.378 368.543 434.889 369.228V366.459H434.161V365.549H435.864V375ZM430.716 371.789C430.716 372.552 430.898 373.158 431.262 373.609C431.635 374.06 432.137 374.285 432.77 374.285C433.42 374.285 433.936 374.06 434.317 373.609C434.698 373.158 434.889 372.552 434.889 371.789C434.889 370.957 434.698 370.298 434.317 369.813C433.936 369.328 433.42 369.085 432.77 369.085C432.137 369.085 431.635 369.328 431.262 369.813C430.898 370.298 430.716 370.957 430.716 371.789ZM440.006 367.122V365.549H441.579V367.122H440.006ZM441.579 374.09H444.478V375H437.679V374.09H440.604V369.111H438.316V368.201H441.579V374.09ZM445.955 375V368.5H451.454L451.467 375H450.492L450.479 369.41H446.93V375H445.955ZM456.116 368.201C456.558 368.201 456.956 368.283 457.312 368.448C457.667 368.604 457.966 368.834 458.209 369.137V368.513H459.184V375.156C459.184 375.945 458.967 376.512 458.534 376.859C458.1 377.214 457.476 377.392 456.662 377.392H453.542V376.482H456.48C456.948 376.482 457.303 376.43 457.546 376.326C457.797 376.231 457.97 376.075 458.066 375.858C458.161 375.65 458.209 375.373 458.209 375.026V374.285C457.715 374.874 457.039 375.169 456.181 375.169C455.253 375.169 454.517 374.866 453.971 374.259C453.433 373.644 453.165 372.812 453.165 371.763C453.165 371.035 453.286 370.407 453.529 369.878C453.771 369.341 454.114 368.929 454.556 368.643C454.998 368.348 455.518 368.201 456.116 368.201ZM454.14 371.763C454.14 372.526 454.322 373.132 454.686 373.583C455.058 374.034 455.557 374.259 456.181 374.259C456.805 374.259 457.299 374.029 457.663 373.57C458.027 373.111 458.209 372.487 458.209 371.698C458.209 370.901 458.018 370.272 457.637 369.813C457.264 369.345 456.757 369.111 456.116 369.111C455.509 369.111 455.028 369.349 454.673 369.826C454.317 370.303 454.14 370.948 454.14 371.763ZM464.509 375.182C463.599 375.182 462.871 374.952 462.325 374.493C461.779 374.034 461.497 373.414 461.48 372.634H462.455C462.472 373.137 462.663 373.54 463.027 373.843C463.391 374.138 463.876 374.281 464.483 374.272C464.925 374.263 465.284 374.168 465.562 373.986C465.848 373.804 465.986 373.574 465.978 373.297C465.969 373.046 465.856 372.829 465.64 372.647C465.423 372.465 465.059 372.287 464.548 372.114L463.729 371.828C463.061 371.594 462.58 371.343 462.286 371.074C462 370.797 461.848 370.459 461.831 370.06C461.822 369.696 461.913 369.375 462.104 369.098C462.294 368.821 462.563 368.604 462.91 368.448C463.265 368.283 463.677 368.201 464.145 368.201C464.951 368.192 465.596 368.396 466.082 368.812C466.567 369.219 466.818 369.783 466.836 370.502L465.861 370.515C465.8 370.082 465.618 369.739 465.315 369.488C465.011 369.237 464.63 369.111 464.171 369.111C463.755 369.111 463.421 369.202 463.17 369.384C462.918 369.566 462.797 369.796 462.806 370.073C462.814 370.264 462.91 370.433 463.092 370.58C463.282 370.727 463.599 370.879 464.041 371.035L464.873 371.321C465.592 371.564 466.108 371.828 466.42 372.114C466.732 372.391 466.892 372.738 466.901 373.154C466.918 373.553 466.827 373.904 466.628 374.207C466.428 374.51 466.147 374.749 465.783 374.922C465.419 375.095 464.994 375.182 464.509 375.182ZM479.514 370.567C479.921 370.567 480.294 370.628 480.632 370.749C480.978 370.862 481.217 371.009 481.347 371.191L481.412 371.282V369.41H477.577V368.5H482.387V375H481.412V374.389L481.347 374.454C481.139 374.662 480.874 374.835 480.554 374.974C480.233 375.113 479.908 375.182 479.579 375.182C479.05 375.182 478.582 375.082 478.175 374.883C477.776 374.684 477.46 374.406 477.226 374.051C477 373.696 476.888 373.288 476.888 372.829C476.888 372.387 476.996 371.997 477.213 371.659C477.438 371.312 477.75 371.044 478.149 370.853C478.547 370.662 479.002 370.567 479.514 370.567ZM477.863 372.829C477.863 373.254 478.023 373.6 478.344 373.869C478.664 374.138 479.076 374.272 479.579 374.272C480.116 374.272 480.554 374.138 480.892 373.869C481.238 373.6 481.412 373.254 481.412 372.829C481.412 372.43 481.234 372.105 480.879 371.854C480.532 371.603 480.077 371.477 479.514 371.477C479.028 371.477 478.63 371.603 478.318 371.854C478.014 372.105 477.863 372.43 477.863 372.829ZM484.93 375V368.5H490.429L490.442 375H489.467L489.454 369.41H485.905V375H484.93ZM495.285 377.366H492.75V376.456H494.531L495.09 375L492.438 368.5H493.517L495.61 373.622L497.547 368.5H498.626L495.285 377.366ZM504.718 374.09H505.784V375H504.536C503.722 375 503.098 374.844 502.664 374.532C502.231 374.211 502.014 373.622 502.014 372.764V369.657H499.895V368.747H502.014V366.719H502.989V368.747H505.758V369.657H502.989V372.634C502.989 373.024 503.037 373.323 503.132 373.531C503.228 373.739 503.401 373.886 503.652 373.973C503.904 374.051 504.259 374.09 504.718 374.09ZM510.16 367.122V365.549H511.733V367.122H510.16ZM511.733 374.09H514.632V375H507.833V374.09H510.758V369.111H508.47V368.201H511.733V374.09ZM515.55 375V368.5H522.115L522.128 375H521.153L521.14 369.41H519.294V375H518.384V369.41H516.525V375H515.55ZM523.462 371.685C523.462 370.966 523.583 370.346 523.826 369.826C524.077 369.306 524.428 368.907 524.879 368.63C525.338 368.344 525.876 368.201 526.491 368.201C527.08 368.201 527.592 368.344 528.025 368.63C528.458 368.916 528.792 369.328 529.026 369.865C529.26 370.394 529.377 371.022 529.377 371.75V371.854H524.424C524.467 372.591 524.684 373.176 525.074 373.609C525.464 374.042 525.967 374.259 526.582 374.259C527.137 374.259 527.574 374.12 527.895 373.843C528.224 373.566 528.415 373.176 528.467 372.673H529.377C529.29 373.47 529.004 374.086 528.519 374.519C528.042 374.952 527.397 375.169 526.582 375.169C525.949 375.169 525.399 375.03 524.931 374.753C524.463 374.467 524.099 374.064 523.839 373.544C523.588 373.015 523.462 372.396 523.462 371.685ZM526.491 369.111C525.936 369.094 525.481 369.25 525.126 369.579C524.779 369.908 524.584 370.363 524.541 370.944H528.363C528.328 370.398 528.142 369.96 527.804 369.631C527.466 369.302 527.028 369.128 526.491 369.111ZM531.127 375V373.557H532.57V375H531.127Z" fill="#F5F5F5"/>
</g>
<defs>
<filter id="filter0_d_30_25" x="0" y="0" width="720" height="440" filterUnits="userSpaceOnUse" color-interpolation-filters="sRGB">
<feFlood flood-opacity="0" result="BackgroundImageFix"/>
<feColorMatrix in="SourceAlpha" type="matrix" values="0 0 0 0 0 0 0 0 0 0 0 0 0 0 0 0 0 0 127 0" result="hardAlpha"/>
<feOffset dy="4"/>
<feGaussianBlur stdDeviation="80"/>
<feComposite in2="hardAlpha" operator="out"/>
<feColorMatrix type="matrix" values="0 0 0 0 0 0 0 0 0 0 0 0 0 0 0 0 0 0 0.25 0"/>
<feBlend mode="normal" in2="BackgroundImageFix" result="effect1_dropShadow_30_25"/>
<feBlend mode="normal" in="SourceGraphic" in2="effect1_dropShadow_30_25" result="shape"/>
</filter>
<filter id="filter1_d_30_25" x="154.6" y="277.6" width="410.8" height="166.8" filterUnits="userSpaceOnUse" color-interpolation-filters="sRGB">
<feFlood flood-opacity="0" result="BackgroundImageFix"/>
<feColorMatrix in="SourceAlpha" type="matrix" values="0 0 0 0 0 0 0 0 0 0 0 0 0 0 0 0 0 0 127 0" result="hardAlpha"/>
<feOffset dy="5"/>
<feGaussianBlur stdDeviation="8.7"/>
<feComposite in2="hardAlpha" operator="out"/>
<feColorMatrix type="matrix" values="0 0 0 0 0 0 0 0 0 0 0 0 0 0 0 0 0 0 0.25 0"/>
<feBlend mode="normal" in2="BackgroundImageFix" result="effect1_dropShadow_30_25"/>
<feBlend mode="normal" in="SourceGraphic" in2="effect1_dropShadow_30_25" result="shape"/>
</filter>
<filter id="filter2_i_30_25" x="172" y="290" width="376" height="139" filterUnits="userSpaceOnUse" color-interpolation-filters="sRGB">
<feFlood flood-opacity="0" result="BackgroundImageFix"/>
<feBlend mode="normal" in="SourceGraphic" in2="BackgroundImageFix" result="shape"/>
<feColorMatrix in="SourceAlpha" type="matrix" values="0 0 0 0 0 0 0 0 0 0 0 0 0 0 0 0 0 0 127 0" result="hardAlpha"/>
<feOffset dy="7"/>
<feGaussianBlur stdDeviation="4.4"/>
<feComposite in2="hardAlpha" operator="arithmetic" k2="-1" k3="1"/>
<feColorMatrix type="matrix" values="0 0 0 0 1 0 0 0 0 1 0 0 0 0 1 0 0 0 0.25 0"/>
<feBlend mode="normal" in2="shape" result="effect1_innerShadow_30_25"/>
</filter>
<radialGradient id="paint0_radial_30_25" cx="0" cy="0" r="1" gradientUnits="userSpaceOnUse" gradientTransform="translate(359.5 215.5) rotate(90) scale(21.5 22.5)">
<stop stop-color="#FFD3D3" stop-opacity="0"/>
<stop offset="1" stop-color="#BF0000"/>
</radialGradient>
<linearGradient id="paint1_linear_30_25" x1="360" y1="290" x2="360" y2="422" gradientUnits="userSpaceOnUse">
<stop/>
<stop offset="1" stop-color="#1E1E1E"/>
</linearGradient>
</defs>
</svg>
